<svg width="820" height="70" viewBox="0 0 820 70" fill="none" xmlns="http://www.w3.org/2000/svg">
<rect width="820" height="70" fill="#D4D4D4" fill-opacity="0.3"/>
<path d="M13.0586 45.3613C13.0586 46.6309 12.8418 47.5742 12.4082 48.1914C11.9746 48.8086 11.2969 49.1172 10.375 49.1172C9.46484 49.1172 8.79102 48.8164 8.35352 48.2148C7.91602 47.6094 7.68945 46.707 7.67383 45.5078V44.0605C7.67383 42.8066 7.89063 41.875 8.32422 41.2656C8.75781 40.6562 9.4375 40.3516 10.3633 40.3516C11.2813 40.3516 11.957 40.6465 12.3906 41.2363C12.8242 41.8223 13.0469 42.7285 13.0586 43.9551V45.3613ZM11.9746 43.8789C11.9746 42.9609 11.8457 42.293 11.5879 41.875C11.3301 41.4531 10.9219 41.2422 10.3633 41.2422C9.80859 41.2422 9.4043 41.4512 9.15039 41.8691C8.89648 42.2871 8.76562 42.9297 8.75781 43.7969V45.5312C8.75781 46.4531 8.89062 47.1348 9.15625 47.5762C9.42578 48.0137 9.83203 48.2324 10.375 48.2324C10.9102 48.2324 11.3066 48.0254 11.5644 47.6113C11.8262 47.1973 11.9629 46.5449 11.9746 45.6543V43.8789ZM50.752 49H49.6621V41.7754L47.4766 42.5781V41.5938L50.582 40.4277H50.752V49ZM92.2598 49H86.6699V48.2207L89.623 44.9395C90.0605 44.4434 90.3613 44.041 90.5254 43.7324C90.6934 43.4199 90.7773 43.0977 90.7773 42.7656C90.7773 42.3203 90.6426 41.9551 90.373 41.6699C90.1035 41.3848 89.7441 41.2422 89.2949 41.2422C88.7559 41.2422 88.3359 41.3965 88.0352 41.7051C87.7383 42.0098 87.5898 42.4355 87.5898 42.9824H86.5059C86.5059 42.1973 86.7578 41.5625 87.2617 41.0781C87.7695 40.5938 88.4473 40.3516 89.2949 40.3516C90.0879 40.3516 90.7148 40.5605 91.1758 40.9785C91.6367 41.3926 91.8672 41.9453 91.8672 42.6367C91.8672 43.4766 91.332 44.4766 90.2617 45.6367L87.9766 48.1152H92.2598V49ZM130.703 44.207H131.518C132.029 44.1992 132.432 44.0645 132.725 43.8027C133.018 43.541 133.164 43.1875 133.164 42.7422C133.164 41.7422 132.666 41.2422 131.67 41.2422C131.201 41.2422 130.826 41.377 130.545 41.6465C130.268 41.9121 130.129 42.2656 130.129 42.707H129.045C129.045 42.0312 129.291 41.4707 129.783 41.0254C130.279 40.5762 130.908 40.3516 131.67 40.3516C132.475 40.3516 133.105 40.5645 133.562 40.9902C134.02 41.416 134.248 42.0078 134.248 42.7656C134.248 43.1367 134.127 43.4961 133.885 43.8438C133.646 44.1914 133.32 44.4512 132.906 44.623C133.375 44.7715 133.736 45.0176 133.99 45.3613C134.248 45.7051 134.377 46.125 134.377 46.6211C134.377 47.3867 134.127 47.9941 133.627 48.4434C133.127 48.8926 132.477 49.1172 131.676 49.1172C130.875 49.1172 130.223 48.9004 129.719 48.4668C129.219 48.0332 128.969 47.4609 128.969 46.75H130.059C130.059 47.1992 130.205 47.5586 130.498 47.8281C130.791 48.0977 131.184 48.2324 131.676 48.2324C132.199 48.2324 132.6 48.0957 132.877 47.8223C133.154 47.5488 133.293 47.1562 133.293 46.6445C133.293 46.1484 133.141 45.7676 132.836 45.502C132.531 45.2363 132.092 45.0996 131.518 45.0918H130.703V44.207ZM173.184 46.1348H174.367V47.0195H173.184V49H172.094V47.0195H168.209V46.3809L172.029 40.4688H173.184V46.1348ZM169.439 46.1348H172.094V41.9512L171.965 42.1855L169.439 46.1348ZM208.586 44.7227L209.02 40.4688H213.391V41.4707H209.939L209.682 43.7969C210.1 43.5508 210.574 43.4277 211.105 43.4277C211.883 43.4277 212.5 43.6855 212.957 44.2012C213.414 44.7129 213.643 45.4062 213.643 46.2812C213.643 47.1602 213.404 47.8535 212.928 48.3613C212.455 48.8652 211.793 49.1172 210.941 49.1172C210.188 49.1172 209.572 48.9082 209.096 48.4902C208.619 48.0723 208.348 47.4941 208.281 46.7559H209.307C209.373 47.2441 209.547 47.6133 209.828 47.8633C210.109 48.1094 210.48 48.2324 210.941 48.2324C211.445 48.2324 211.84 48.0605 212.125 47.7168C212.414 47.373 212.559 46.8984 212.559 46.293C212.559 45.7227 212.402 45.2656 212.09 44.9219C211.781 44.5742 211.369 44.4004 210.854 44.4004C210.381 44.4004 210.01 44.5039 209.74 44.7109L209.453 44.9453L208.586 44.7227ZM251.822 40.4629V41.3828H251.623C250.779 41.3984 250.107 41.6484 249.607 42.1328C249.107 42.6172 248.818 43.2988 248.74 44.1777C249.189 43.6621 249.803 43.4043 250.58 43.4043C251.322 43.4043 251.914 43.666 252.355 44.1895C252.801 44.7129 253.023 45.3887 253.023 46.2168C253.023 47.0957 252.783 47.7988 252.303 48.3262C251.826 48.8535 251.186 49.1172 250.381 49.1172C249.564 49.1172 248.902 48.8047 248.395 48.1797C247.887 47.5508 247.633 46.7422 247.633 45.7539V45.3379C247.633 43.7676 247.967 42.5684 248.635 41.7402C249.307 40.9082 250.305 40.4824 251.629 40.4629H251.822ZM250.398 44.3066C250.027 44.3066 249.686 44.418 249.373 44.6406C249.061 44.8633 248.844 45.1426 248.723 45.4785V45.877C248.723 46.5801 248.881 47.1465 249.197 47.5762C249.514 48.0059 249.908 48.2207 250.381 48.2207C250.869 48.2207 251.252 48.041 251.529 47.6816C251.811 47.3223 251.951 46.8516 251.951 46.2695C251.951 45.6836 251.809 45.2109 251.523 44.8516C251.242 44.4883 250.867 44.3066 250.398 44.3066ZM292.557 41.0781L289.023 49H287.887L291.408 41.3594H286.791V40.4688H292.557V41.0781ZM331.703 42.6953C331.703 43.1211 331.59 43.5 331.363 43.832C331.141 44.1641 330.838 44.4238 330.455 44.6113C330.9 44.8027 331.252 45.082 331.51 45.4492C331.771 45.8164 331.902 46.2324 331.902 46.6973C331.902 47.4355 331.652 48.0234 331.152 48.4609C330.656 48.8984 330.002 49.1172 329.189 49.1172C328.369 49.1172 327.711 48.8984 327.215 48.4609C326.723 48.0195 326.477 47.4316 326.477 46.6973C326.477 46.2363 326.602 45.8203 326.852 45.4492C327.105 45.0781 327.455 44.7969 327.9 44.6055C327.521 44.418 327.223 44.1582 327.004 43.8262C326.785 43.4941 326.676 43.1172 326.676 42.6953C326.676 41.9766 326.906 41.4062 327.367 40.9844C327.828 40.5625 328.436 40.3516 329.189 40.3516C329.939 40.3516 330.545 40.5625 331.006 40.9844C331.471 41.4062 331.703 41.9766 331.703 42.6953ZM330.818 46.6738C330.818 46.1973 330.666 45.8086 330.361 45.5078C330.061 45.207 329.666 45.0566 329.178 45.0566C328.689 45.0566 328.297 45.2051 328 45.502C327.707 45.7988 327.561 46.1895 327.561 46.6738C327.561 47.1582 327.703 47.5391 327.988 47.8164C328.277 48.0938 328.678 48.2324 329.189 48.2324C329.697 48.2324 330.096 48.0938 330.385 47.8164C330.674 47.5352 330.818 47.1543 330.818 46.6738ZM329.189 41.2422C328.764 41.2422 328.418 41.375 328.152 41.6406C327.891 41.9023 327.76 42.2598 327.76 42.7129C327.76 43.1465 327.889 43.498 328.146 43.7676C328.408 44.0332 328.756 44.166 329.189 44.166C329.623 44.166 329.969 44.0332 330.227 43.7676C330.488 43.498 330.619 43.1465 330.619 42.7129C330.619 42.2793 330.484 41.9258 330.215 41.6523C329.945 41.3789 329.604 41.2422 329.189 41.2422ZM373.141 45.25C372.914 45.5195 372.643 45.7363 372.326 45.9004C372.014 46.0645 371.67 46.1465 371.295 46.1465C370.803 46.1465 370.373 46.0254 370.006 45.7832C369.643 45.541 369.361 45.2012 369.162 44.7637C368.963 44.3223 368.863 43.8359 368.863 43.3047C368.863 42.7344 368.971 42.2207 369.186 41.7637C369.404 41.3066 369.713 40.957 370.111 40.7148C370.51 40.4727 370.975 40.3516 371.506 40.3516C372.35 40.3516 373.014 40.668 373.498 41.3008C373.986 41.9297 374.23 42.7891 374.23 43.8789V44.1953C374.23 45.8555 373.902 47.0684 373.246 47.834C372.59 48.5957 371.6 48.9863 370.275 49.0059H370.064V48.0918H370.293C371.188 48.0762 371.875 47.8438 372.355 47.3945C372.836 46.9414 373.098 46.2266 373.141 45.25ZM371.471 45.25C371.834 45.25 372.168 45.1387 372.473 44.916C372.781 44.6934 373.006 44.418 373.146 44.0898V43.6562C373.146 42.9453 372.992 42.3672 372.684 41.9219C372.375 41.4766 371.984 41.2539 371.512 41.2539C371.035 41.2539 370.652 41.4375 370.363 41.8047C370.074 42.168 369.93 42.6484 369.93 43.2461C369.93 43.8281 370.068 44.3086 370.346 44.6875C370.627 45.0625 371.002 45.25 371.471 45.25ZM409.053 49H407.963V41.7754L405.777 42.5781V41.5938L408.883 40.4277H409.053V49ZM417.578 45.3613C417.578 46.6309 417.361 47.5742 416.928 48.1914C416.494 48.8086 415.816 49.1172 414.895 49.1172C413.984 49.1172 413.311 48.8164 412.873 48.2148C412.436 47.6094 412.209 46.707 412.193 45.5078V44.0605C412.193 42.8066 412.41 41.875 412.844 41.2656C413.277 40.6562 413.957 40.3516 414.883 40.3516C415.801 40.3516 416.477 40.6465 416.91 41.2363C417.344 41.8223 417.566 42.7285 417.578 43.9551V45.3613ZM416.494 43.8789C416.494 42.9609 416.365 42.293 416.107 41.875C415.85 41.4531 415.441 41.2422 414.883 41.2422C414.328 41.2422 413.924 41.4512 413.67 41.8691C413.416 42.2871 413.285 42.9297 413.277 43.7969V45.5312C413.277 46.4531 413.41 47.1348 413.676 47.5762C413.945 48.0137 414.352 48.2324 414.895 48.2324C415.43 48.2324 415.826 48.0254 416.084 47.6113C416.346 47.1973 416.482 46.5449 416.494 45.6543V43.8789ZM449.318 49H448.229V41.7754L446.043 42.5781V41.5938L449.148 40.4277H449.318V49ZM456.057 49H454.967V41.7754L452.781 42.5781V41.5938L455.887 40.4277H456.057V49ZM486.607 49H485.518V41.7754L483.332 42.5781V41.5938L486.438 40.4277H486.607V49ZM495.373 49H489.783V48.2207L492.736 44.9395C493.174 44.4434 493.475 44.041 493.639 43.7324C493.807 43.4199 493.891 43.0977 493.891 42.7656C493.891 42.3203 493.756 41.9551 493.486 41.6699C493.217 41.3848 492.857 41.2422 492.408 41.2422C491.869 41.2422 491.449 41.3965 491.148 41.7051C490.852 42.0098 490.703 42.4355 490.703 42.9824H489.619C489.619 42.1973 489.871 41.5625 490.375 41.0781C490.883 40.5938 491.561 40.3516 492.408 40.3516C493.201 40.3516 493.828 40.5605 494.289 40.9785C494.75 41.3926 494.98 41.9453 494.98 42.6367C494.98 43.4766 494.445 44.4766 493.375 45.6367L491.09 48.1152H495.373V49ZM526.873 49H525.783V41.7754L523.598 42.5781V41.5938L526.703 40.4277H526.873V49ZM531.625 44.207H532.439C532.951 44.1992 533.354 44.0645 533.646 43.8027C533.939 43.541 534.086 43.1875 534.086 42.7422C534.086 41.7422 533.588 41.2422 532.592 41.2422C532.123 41.2422 531.748 41.377 531.467 41.6465C531.189 41.9121 531.051 42.2656 531.051 42.707H529.967C529.967 42.0312 530.213 41.4707 530.705 41.0254C531.201 40.5762 531.83 40.3516 532.592 40.3516C533.396 40.3516 534.027 40.5645 534.484 40.9902C534.941 41.416 535.17 42.0078 535.17 42.7656C535.17 43.1367 535.049 43.4961 534.807 43.8438C534.568 44.1914 534.242 44.4512 533.828 44.623C534.297 44.7715 534.658 45.0176 534.912 45.3613C535.17 45.7051 535.299 46.125 535.299 46.6211C535.299 47.3867 535.049 47.9941 534.549 48.4434C534.049 48.8926 533.398 49.1172 532.598 49.1172C531.797 49.1172 531.145 48.9004 530.641 48.4668C530.141 48.0332 529.891 47.4609 529.891 46.75H530.98C530.98 47.1992 531.127 47.5586 531.42 47.8281C531.713 48.0977 532.105 48.2324 532.598 48.2324C533.121 48.2324 533.521 48.0957 533.799 47.8223C534.076 47.5488 534.215 47.1562 534.215 46.6445C534.215 46.1484 534.062 45.7676 533.758 45.502C533.453 45.2363 533.014 45.0996 532.439 45.0918H531.625V44.207ZM567.139 49H566.049V41.7754L563.863 42.5781V41.5938L566.969 40.4277H567.139V49ZM574.891 46.1348H576.074V47.0195H574.891V49H573.801V47.0195H569.916V46.3809L573.736 40.4688H574.891V46.1348ZM571.146 46.1348H573.801V41.9512L573.672 42.1855L571.146 46.1348ZM607.404 49H606.314V41.7754L604.129 42.5781V41.5938L607.234 40.4277H607.404V49ZM611.078 44.7227L611.512 40.4688H615.883V41.4707H612.432L612.174 43.7969C612.592 43.5508 613.066 43.4277 613.598 43.4277C614.375 43.4277 614.992 43.6855 615.449 44.2012C615.906 44.7129 616.135 45.4062 616.135 46.2812C616.135 47.1602 615.896 47.8535 615.42 48.3613C614.947 48.8652 614.285 49.1172 613.434 49.1172C612.68 49.1172 612.064 48.9082 611.588 48.4902C611.111 48.0723 610.84 47.4941 610.773 46.7559H611.799C611.865 47.2441 612.039 47.6133 612.32 47.8633C612.602 48.1094 612.973 48.2324 613.434 48.2324C613.938 48.2324 614.332 48.0605 614.617 47.7168C614.906 47.373 615.051 46.8984 615.051 46.293C615.051 45.7227 614.895 45.2656 614.582 44.9219C614.273 44.5742 613.861 44.4004 613.346 44.4004C612.873 44.4004 612.502 44.5039 612.232 44.7109L611.945 44.9453L611.078 44.7227ZM647.67 49H646.58V41.7754L644.395 42.5781V41.5938L647.5 40.4277H647.67V49ZM655.1 40.4629V41.3828H654.9C654.057 41.3984 653.385 41.6484 652.885 42.1328C652.385 42.6172 652.096 43.2988 652.018 44.1777C652.467 43.6621 653.08 43.4043 653.857 43.4043C654.6 43.4043 655.191 43.666 655.633 44.1895C656.078 44.7129 656.301 45.3887 656.301 46.2168C656.301 47.0957 656.061 47.7988 655.58 48.3262C655.104 48.8535 654.463 49.1172 653.658 49.1172C652.842 49.1172 652.18 48.8047 651.672 48.1797C651.164 47.5508 650.91 46.7422 650.91 45.7539V45.3379C650.91 43.7676 651.244 42.5684 651.912 41.7402C652.584 40.9082 653.582 40.4824 654.906 40.4629H655.1ZM653.676 44.3066C653.305 44.3066 652.963 44.418 652.65 44.6406C652.338 44.8633 652.121 45.1426 652 45.4785V45.877C652 46.5801 652.158 47.1465 652.475 47.5762C652.791 48.0059 653.186 48.2207 653.658 48.2207C654.146 48.2207 654.529 48.041 654.807 47.6816C655.088 47.3223 655.229 46.8516 655.229 46.2695C655.229 45.6836 655.086 45.2109 654.801 44.8516C654.52 44.4883 654.145 44.3066 653.676 44.3066ZM687.936 49H686.846V41.7754L684.66 42.5781V41.5938L687.766 40.4277H687.936V49ZM696.619 41.0781L693.086 49H691.949L695.471 41.3594H690.854V40.4688H696.619V41.0781ZM728.201 49H727.111V41.7754L724.926 42.5781V41.5938L728.031 40.4277H728.201V49ZM736.551 42.6953C736.551 43.1211 736.438 43.5 736.211 43.832C735.988 44.1641 735.686 44.4238 735.303 44.6113C735.748 44.8027 736.1 45.082 736.357 45.4492C736.619 45.8164 736.75 46.2324 736.75 46.6973C736.75 47.4355 736.5 48.0234 736 48.4609C735.504 48.8984 734.85 49.1172 734.037 49.1172C733.217 49.1172 732.559 48.8984 732.062 48.4609C731.57 48.0195 731.324 47.4316 731.324 46.6973C731.324 46.2363 731.449 45.8203 731.699 45.4492C731.953 45.0781 732.303 44.7969 732.748 44.6055C732.369 44.418 732.07 44.1582 731.852 43.8262C731.633 43.4941 731.523 43.1172 731.523 42.6953C731.523 41.9766 731.754 41.4062 732.215 40.9844C732.676 40.5625 733.283 40.3516 734.037 40.3516C734.787 40.3516 735.393 40.5625 735.854 40.9844C736.318 41.4062 736.551 41.9766 736.551 42.6953ZM735.666 46.6738C735.666 46.1973 735.514 45.8086 735.209 45.5078C734.908 45.207 734.514 45.0566 734.025 45.0566C733.537 45.0566 733.145 45.2051 732.848 45.502C732.555 45.7988 732.408 46.1895 732.408 46.6738C732.408 47.1582 732.551 47.5391 732.836 47.8164C733.125 48.0938 733.525 48.2324 734.037 48.2324C734.545 48.2324 734.943 48.0938 735.232 47.8164C735.521 47.5352 735.666 47.1543 735.666 46.6738ZM734.037 41.2422C733.611 41.2422 733.266 41.375 733 41.6406C732.738 41.9023 732.607 42.2598 732.607 42.7129C732.607 43.1465 732.736 43.498 732.994 43.7676C733.256 44.0332 733.604 44.166 734.037 44.166C734.471 44.166 734.816 44.0332 735.074 43.7676C735.336 43.498 735.467 43.1465 735.467 42.7129C735.467 42.2793 735.332 41.9258 735.062 41.6523C734.793 41.3789 734.451 41.2422 734.037 41.2422ZM768.467 49H767.377V41.7754L765.191 42.5781V41.5938L768.297 40.4277H768.467V49ZM775.797 45.25C775.57 45.5195 775.299 45.7363 774.982 45.9004C774.67 46.0645 774.326 46.1465 773.951 46.1465C773.459 46.1465 773.029 46.0254 772.662 45.7832C772.299 45.541 772.018 45.2012 771.818 44.7637C771.619 44.3223 771.52 43.8359 771.52 43.3047C771.52 42.7344 771.627 42.2207 771.842 41.7637C772.061 41.3066 772.369 40.957 772.768 40.7148C773.166 40.4727 773.631 40.3516 774.162 40.3516C775.006 40.3516 775.67 40.668 776.154 41.3008C776.643 41.9297 776.887 42.7891 776.887 43.8789V44.1953C776.887 45.8555 776.559 47.0684 775.902 47.834C775.246 48.5957 774.256 48.9863 772.932 49.0059H772.721V48.0918H772.949C773.844 48.0762 774.531 47.8438 775.012 47.3945C775.492 46.9414 775.754 46.2266 775.797 45.25ZM774.127 45.25C774.49 45.25 774.824 45.1387 775.129 44.916C775.438 44.6934 775.662 44.418 775.803 44.0898V43.6562C775.803 42.9453 775.648 42.3672 775.34 41.9219C775.031 41.4766 774.641 41.2539 774.168 41.2539C773.691 41.2539 773.309 41.4375 773.02 41.8047C772.73 42.168 772.586 42.6484 772.586 43.2461C772.586 43.8281 772.725 44.3086 773.002 44.6875C773.283 45.0625 773.658 45.25 774.127 45.25ZM804.807 49H799.217V48.2207L802.17 44.9395C802.607 44.4434 802.908 44.041 803.072 43.7324C803.24 43.4199 803.324 43.0977 803.324 42.7656C803.324 42.3203 803.189 41.9551 802.92 41.6699C802.65 41.3848 802.291 41.2422 801.842 41.2422C801.303 41.2422 800.883 41.3965 800.582 41.7051C800.285 42.0098 800.137 42.4355 800.137 42.9824H799.053C799.053 42.1973 799.305 41.5625 799.809 41.0781C800.316 40.5938 800.994 40.3516 801.842 40.3516C802.635 40.3516 803.262 40.5605 803.723 40.9785C804.184 41.3926 804.414 41.9453 804.414 42.6367C804.414 43.4766 803.879 44.4766 802.809 45.6367L800.523 48.1152H804.807V49ZM811.305 45.3613C811.305 46.6309 811.088 47.5742 810.654 48.1914C810.221 48.8086 809.543 49.1172 808.621 49.1172C807.711 49.1172 807.037 48.8164 806.6 48.2148C806.162 47.6094 805.936 46.707 805.92 45.5078V44.0605C805.92 42.8066 806.137 41.875 806.57 41.2656C807.004 40.6562 807.684 40.3516 808.609 40.3516C809.527 40.3516 810.203 40.6465 810.637 41.2363C811.07 41.8223 811.293 42.7285 811.305 43.9551V45.3613ZM810.221 43.8789C810.221 42.9609 810.092 42.293 809.834 41.875C809.576 41.4531 809.168 41.2422 808.609 41.2422C808.055 41.2422 807.65 41.4512 807.396 41.8691C807.143 42.2871 807.012 42.9297 807.004 43.7969V45.5312C807.004 46.4531 807.137 47.1348 807.402 47.5762C807.672 48.0137 808.078 48.2324 808.621 48.2324C809.156 48.2324 809.553 48.0254 809.811 47.6113C810.072 47.1973 810.209 46.5449 810.221 45.6543V43.8789Z" fill="black"/>
<path d="M130.5 0V38" stroke="black"/>
<path d="M126.5 0V20" stroke="black"/>
<path d="M122.5 0V20" stroke="black"/>
<path d="M118.5 0V20" stroke="black"/>
<path d="M114.5 0V20" stroke="black"/>
<path d="M110.5 0V29" stroke="black"/>
<path d="M106.5 0V20" stroke="black"/>
<path d="M102.5 0V20" stroke="black"/>
<path d="M98.5 0V20" stroke="black"/>
<path d="M94.5 0V20" stroke="black"/>
<path d="M90.5 0V38" stroke="black"/>
<path d="M170.5 0V38" stroke="black"/>
<path d="M166.5 0V20" stroke="black"/>
<path d="M162.5 0V20" stroke="black"/>
<path d="M158.5 0V20" stroke="black"/>
<path d="M154.5 0V20" stroke="black"/>
<path d="M150.5 0V29" stroke="black"/>
<path d="M146.5 0V20" stroke="black"/>
<path d="M142.5 0V20" stroke="black"/>
<path d="M138.5 0V20" stroke="black"/>
<path d="M134.5 0V20" stroke="black"/>
<path d="M130.5 0V38" stroke="black"/>
<path d="M210.5 0V38" stroke="black"/>
<path d="M206.5 0V20" stroke="black"/>
<path d="M202.5 0V20" stroke="black"/>
<path d="M198.5 0V20" stroke="black"/>
<path d="M194.5 0V20" stroke="black"/>
<path d="M190.5 0V29" stroke="black"/>
<path d="M186.5 0V20" stroke="black"/>
<path d="M182.5 0V20" stroke="black"/>
<path d="M178.5 0V20" stroke="black"/>
<path d="M174.5 0V20" stroke="black"/>
<path d="M170.5 0V38" stroke="black"/>
<path d="M250.5 0V38" stroke="black"/>
<path d="M246.5 0V20" stroke="black"/>
<path d="M242.5 0V20" stroke="black"/>
<path d="M238.5 0V20" stroke="black"/>
<path d="M234.5 0V20" stroke="black"/>
<path d="M230.5 0V29" stroke="black"/>
<path d="M226.5 0V20" stroke="black"/>
<path d="M222.5 0V20" stroke="black"/>
<path d="M218.5 0V20" stroke="black"/>
<path d="M214.5 0V20" stroke="black"/>
<path d="M210.5 0V38" stroke="black"/>
<path d="M290.5 0V38" stroke="black"/>
<path d="M286.5 0V20" stroke="black"/>
<path d="M282.5 0V20" stroke="black"/>
<path d="M278.5 0V20" stroke="black"/>
<path d="M274.5 0V20" stroke="black"/>
<path d="M270.5 0V29" stroke="black"/>
<path d="M266.5 0V20" stroke="black"/>
<path d="M262.5 0V20" stroke="black"/>
<path d="M258.5 0V20" stroke="black"/>
<path d="M254.5 0V20" stroke="black"/>
<path d="M250.5 0V38" stroke="black"/>
<path d="M330.5 0V38" stroke="black"/>
<path d="M326.5 0V20" stroke="black"/>
<path d="M322.5 0V20" stroke="black"/>
<path d="M318.5 0V20" stroke="black"/>
<path d="M314.5 0V20" stroke="black"/>
<path d="M310.5 0V29" stroke="black"/>
<path d="M306.5 0V20" stroke="black"/>
<path d="M302.5 0V20" stroke="black"/>
<path d="M298.5 0V20" stroke="black"/>
<path d="M294.5 0V20" stroke="black"/>
<path d="M290.5 0V38" stroke="black"/>
<path d="M370.5 0V38" stroke="black"/>
<path d="M366.5 0V20" stroke="black"/>
<path d="M362.5 0V20" stroke="black"/>
<path d="M358.5 0V20" stroke="black"/>
<path d="M354.5 0V20" stroke="black"/>
<path d="M350.5 0V29" stroke="black"/>
<path d="M346.5 0V20" stroke="black"/>
<path d="M342.5 0V20" stroke="black"/>
<path d="M338.5 0V20" stroke="black"/>
<path d="M334.5 0V20" stroke="black"/>
<path d="M330.5 0V38" stroke="black"/>
<path d="M410.5 0V38" stroke="black"/>
<path d="M406.5 0V20" stroke="black"/>
<path d="M402.5 0V20" stroke="black"/>
<path d="M398.5 0V20" stroke="black"/>
<path d="M394.5 0V20" stroke="black"/>
<path d="M390.5 0V29" stroke="black"/>
<path d="M386.5 0V20" stroke="black"/>
<path d="M382.5 0V20" stroke="black"/>
<path d="M378.5 0V20" stroke="black"/>
<path d="M374.5 0V20" stroke="black"/>
<path d="M370.5 0V38" stroke="black"/>
<path d="M450.5 0V38" stroke="black"/>
<path d="M446.5 0V20" stroke="black"/>
<path d="M442.5 0V20" stroke="black"/>
<path d="M438.5 0V20" stroke="black"/>
<path d="M434.5 0V20" stroke="black"/>
<path d="M430.5 0V29" stroke="black"/>
<path d="M426.5 0V20" stroke="black"/>
<path d="M422.5 0V20" stroke="black"/>
<path d="M418.5 0V20" stroke="black"/>
<path d="M414.5 0V20" stroke="black"/>
<path d="M410.5 0V38" stroke="black"/>
<path d="M490.5 0V38" stroke="black"/>
<path d="M486.5 0V20" stroke="black"/>
<path d="M482.5 0V20" stroke="black"/>
<path d="M478.5 0V20" stroke="black"/>
<path d="M474.5 0V20" stroke="black"/>
<path d="M470.5 0V29" stroke="black"/>
<path d="M466.5 0V20" stroke="black"/>
<path d="M462.5 0V20" stroke="black"/>
<path d="M458.5 0V20" stroke="black"/>
<path d="M454.5 0V20" stroke="black"/>
<path d="M450.5 0V38" stroke="black"/>
<path d="M530.5 0V38" stroke="black"/>
<path d="M526.5 0V20" stroke="black"/>
<path d="M522.5 0V20" stroke="black"/>
<path d="M518.5 0V20" stroke="black"/>
<path d="M514.5 0V20" stroke="black"/>
<path d="M510.5 0V29" stroke="black"/>
<path d="M506.5 0V20" stroke="black"/>
<path d="M502.5 0V20" stroke="black"/>
<path d="M498.5 0V20" stroke="black"/>
<path d="M494.5 0V20" stroke="black"/>
<path d="M490.5 0V38" stroke="black"/>
<path d="M570.5 0V38" stroke="black"/>
<path d="M566.5 0V20" stroke="black"/>
<path d="M562.5 0V20" stroke="black"/>
<path d="M558.5 0V20" stroke="black"/>
<path d="M554.5 0V20" stroke="black"/>
<path d="M550.5 0V29" stroke="black"/>
<path d="M546.5 0V20" stroke="black"/>
<path d="M542.5 0V20" stroke="black"/>
<path d="M538.5 0V20" stroke="black"/>
<path d="M534.5 0V20" stroke="black"/>
<path d="M530.5 0V38" stroke="black"/>
<path d="M610.5 0V38" stroke="black"/>
<path d="M606.5 0V20" stroke="black"/>
<path d="M602.5 0V20" stroke="black"/>
<path d="M598.5 0V20" stroke="black"/>
<path d="M594.5 0V20" stroke="black"/>
<path d="M590.5 0V29" stroke="black"/>
<path d="M586.5 0V20" stroke="black"/>
<path d="M582.5 0V20" stroke="black"/>
<path d="M578.5 0V20" stroke="black"/>
<path d="M574.5 0V20" stroke="black"/>
<path d="M570.5 0V38" stroke="black"/>
<path d="M650.5 0V38" stroke="black"/>
<path d="M646.5 0V20" stroke="black"/>
<path d="M642.5 0V20" stroke="black"/>
<path d="M638.5 0V20" stroke="black"/>
<path d="M634.5 0V20" stroke="black"/>
<path d="M630.5 0V29" stroke="black"/>
<path d="M626.5 0V20" stroke="black"/>
<path d="M622.5 0V20" stroke="black"/>
<path d="M618.5 0V20" stroke="black"/>
<path d="M614.5 0V20" stroke="black"/>
<path d="M610.5 0V38" stroke="black"/>
<path d="M690.5 0V38" stroke="black"/>
<path d="M686.5 0V20" stroke="black"/>
<path d="M682.5 0V20" stroke="black"/>
<path d="M678.5 0V20" stroke="black"/>
<path d="M674.5 0V20" stroke="black"/>
<path d="M670.5 0V29" stroke="black"/>
<path d="M666.5 0V20" stroke="black"/>
<path d="M662.5 0V20" stroke="black"/>
<path d="M658.5 0V20" stroke="black"/>
<path d="M654.5 0V20" stroke="black"/>
<path d="M650.5 0V38" stroke="black"/>
<path d="M730.5 0V38" stroke="black"/>
<path d="M726.5 0V20" stroke="black"/>
<path d="M722.5 0V20" stroke="black"/>
<path d="M718.5 0V20" stroke="black"/>
<path d="M714.5 0V20" stroke="black"/>
<path d="M710.5 0V29" stroke="black"/>
<path d="M706.5 0V20" stroke="black"/>
<path d="M702.5 0V20" stroke="black"/>
<path d="M698.5 0V20" stroke="black"/>
<path d="M694.5 0V20" stroke="black"/>
<path d="M690.5 0V38" stroke="black"/>
<path d="M770.5 0V38" stroke="black"/>
<path d="M766.5 0V20" stroke="black"/>
<path d="M762.5 0V20" stroke="black"/>
<path d="M758.5 0V20" stroke="black"/>
<path d="M754.5 0V20" stroke="black"/>
<path d="M750.5 0V29" stroke="black"/>
<path d="M746.5 0V20" stroke="black"/>
<path d="M742.5 0V20" stroke="black"/>
<path d="M738.5 0V20" stroke="black"/>
<path d="M734.5 0V20" stroke="black"/>
<path d="M730.5 0V38" stroke="black"/>
<path d="M810.5 0V38" stroke="black"/>
<path d="M806.5 0V20" stroke="black"/>
<path d="M802.5 0V20" stroke="black"/>
<path d="M798.5 0V20" stroke="black"/>
<path d="M794.5 0V20" stroke="black"/>
<path d="M790.5 0V29" stroke="black"/>
<path d="M786.5 0V20" stroke="black"/>
<path d="M782.5 0V20" stroke="black"/>
<path d="M778.5 0V20" stroke="black"/>
<path d="M774.5 0V20" stroke="black"/>
<path d="M770.5 0V38" stroke="black"/>
<path d="M90.5 0V38" stroke="black"/>
<path d="M86.5 0V20" stroke="black"/>
<path d="M82.5 0V20" stroke="black"/>
<path d="M78.5 0V20" stroke="black"/>
<path d="M74.5 0V20" stroke="black"/>
<path d="M70.5 0V29" stroke="black"/>
<path d="M66.5 0V20" stroke="black"/>
<path d="M62.5 0V20" stroke="black"/>
<path d="M58.5 0V20" stroke="black"/>
<path d="M54.5 0V20" stroke="black"/>
<path d="M50.5 0V38" stroke="black"/>
<path d="M50.5 0V38" stroke="black"/>
<path d="M46.5 0V20" stroke="black"/>
<path d="M42.5 0V20" stroke="black"/>
<path d="M38.5 0V20" stroke="black"/>
<path d="M34.5 0V20" stroke="black"/>
<path d="M30.5 0V29" stroke="black"/>
<path d="M26.5 0V20" stroke="black"/>
<path d="M22.5 0V20" stroke="black"/>
<path d="M18.5 0V20" stroke="black"/>
<path d="M14.5 0V20" stroke="black"/>
<path d="M10.5 0V38" stroke="black"/>
</svg>
