<svg width="840" height="70" viewBox="0 0 840 70" fill="none" xmlns="http://www.w3.org/2000/svg">
<rect width="840" height="70" fill="#D4D4D4" fill-opacity="0.3"/>
<path d="M15.0586 45.3613C15.0586 46.6309 14.8418 47.5742 14.4082 48.1914C13.9746 48.8086 13.2969 49.1172 12.375 49.1172C11.4648 49.1172 10.791 48.8164 10.3535 48.2148C9.91602 47.6094 9.68945 46.707 9.67383 45.5078V44.0605C9.67383 42.8066 9.89063 41.875 10.3242 41.2656C10.7578 40.6562 11.4375 40.3516 12.3633 40.3516C13.2813 40.3516 13.957 40.6465 14.3906 41.2363C14.8242 41.8223 15.0469 42.7285 15.0586 43.9551V45.3613ZM13.9746 43.8789C13.9746 42.9609 13.8457 42.293 13.5879 41.875C13.3301 41.4531 12.9219 41.2422 12.3633 41.2422C11.8086 41.2422 11.4043 41.4512 11.1504 41.8691C10.8965 42.2871 10.7656 42.9297 10.7578 43.7969V45.5312C10.7578 46.4531 10.8906 47.1348 11.1563 47.5762C11.4258 48.0137 11.832 48.2324 12.375 48.2324C12.9102 48.2324 13.3066 48.0254 13.5644 47.6113C13.8262 47.1973 13.9629 46.5449 13.9746 45.6543V43.8789ZM115.26 49H114.17V41.7754L111.984 42.5781V41.5938L115.09 40.4277H115.26V49ZM219.275 49H213.686V48.2207L216.639 44.9395C217.076 44.4434 217.377 44.041 217.541 43.7324C217.709 43.4199 217.793 43.0977 217.793 42.7656C217.793 42.3203 217.658 41.9551 217.389 41.6699C217.119 41.3848 216.76 41.2422 216.311 41.2422C215.771 41.2422 215.352 41.3965 215.051 41.7051C214.754 42.0098 214.605 42.4355 214.605 42.9824H213.521C213.521 42.1973 213.773 41.5625 214.277 41.0781C214.785 40.5938 215.463 40.3516 216.311 40.3516C217.104 40.3516 217.73 40.5605 218.191 40.9785C218.652 41.3926 218.883 41.9453 218.883 42.6367C218.883 43.4766 218.348 44.4766 217.277 45.6367L214.992 48.1152H219.275V49ZM317.25 44.207H318.064C318.576 44.1992 318.979 44.0645 319.271 43.8027C319.564 43.541 319.711 43.1875 319.711 42.7422C319.711 41.7422 319.213 41.2422 318.217 41.2422C317.748 41.2422 317.373 41.377 317.092 41.6465C316.814 41.9121 316.676 42.2656 316.676 42.707H315.592C315.592 42.0312 315.838 41.4707 316.33 41.0254C316.826 40.5762 317.455 40.3516 318.217 40.3516C319.021 40.3516 319.652 40.5645 320.109 40.9902C320.566 41.416 320.795 42.0078 320.795 42.7656C320.795 43.1367 320.674 43.4961 320.432 43.8438C320.193 44.1914 319.867 44.4512 319.453 44.623C319.922 44.7715 320.283 45.0176 320.537 45.3613C320.795 45.7051 320.924 46.125 320.924 46.6211C320.924 47.3867 320.674 47.9941 320.174 48.4434C319.674 48.8926 319.023 49.1172 318.223 49.1172C317.422 49.1172 316.77 48.9004 316.266 48.4668C315.766 48.0332 315.516 47.4609 315.516 46.75H316.605C316.605 47.1992 316.752 47.5586 317.045 47.8281C317.338 48.0977 317.73 48.2324 318.223 48.2324C318.746 48.2324 319.146 48.0957 319.424 47.8223C319.701 47.5488 319.84 47.1562 319.84 46.6445C319.84 46.1484 319.688 45.7676 319.383 45.502C319.078 45.2363 318.639 45.0996 318.064 45.0918H317.25V44.207ZM422.238 46.1348H423.422V47.0195H422.238V49H421.148V47.0195H417.264V46.3809L421.084 40.4688H422.238V46.1348ZM418.494 46.1348H421.148V41.9512L421.02 42.1855L418.494 46.1348ZM520.148 44.7227L520.582 40.4688H524.953V41.4707H521.502L521.244 43.7969C521.662 43.5508 522.137 43.4277 522.668 43.4277C523.445 43.4277 524.062 43.6855 524.52 44.2012C524.977 44.7129 525.205 45.4062 525.205 46.2812C525.205 47.1602 524.967 47.8535 524.49 48.3613C524.018 48.8652 523.355 49.1172 522.504 49.1172C521.75 49.1172 521.135 48.9082 520.658 48.4902C520.182 48.0723 519.91 47.4941 519.844 46.7559H520.869C520.936 47.2441 521.109 47.6133 521.391 47.8633C521.672 48.1094 522.043 48.2324 522.504 48.2324C523.008 48.2324 523.402 48.0605 523.688 47.7168C523.977 47.373 524.121 46.8984 524.121 46.293C524.121 45.7227 523.965 45.2656 523.652 44.9219C523.344 44.5742 522.932 44.4004 522.416 44.4004C521.943 44.4004 521.572 44.5039 521.303 44.7109L521.016 44.9453L520.148 44.7227ZM625.893 40.4629V41.3828H625.693C624.85 41.3984 624.178 41.6484 623.678 42.1328C623.178 42.6172 622.889 43.2988 622.811 44.1777C623.26 43.6621 623.873 43.4043 624.65 43.4043C625.393 43.4043 625.984 43.666 626.426 44.1895C626.871 44.7129 627.094 45.3887 627.094 46.2168C627.094 47.0957 626.854 47.7988 626.373 48.3262C625.896 48.8535 625.256 49.1172 624.451 49.1172C623.635 49.1172 622.973 48.8047 622.465 48.1797C621.957 47.5508 621.703 46.7422 621.703 45.7539V45.3379C621.703 43.7676 622.037 42.5684 622.705 41.7402C623.377 40.9082 624.375 40.4824 625.699 40.4629H625.893ZM624.469 44.3066C624.098 44.3066 623.756 44.418 623.443 44.6406C623.131 44.8633 622.914 45.1426 622.793 45.4785V45.877C622.793 46.5801 622.951 47.1465 623.268 47.5762C623.584 48.0059 623.979 48.2207 624.451 48.2207C624.939 48.2207 625.322 48.041 625.6 47.6816C625.881 47.3223 626.021 46.8516 626.021 46.2695C626.021 45.6836 625.879 45.2109 625.594 44.8516C625.312 44.4883 624.938 44.3066 624.469 44.3066ZM729.135 41.0781L725.602 49H724.465L727.986 41.3594H723.369V40.4688H729.135V41.0781ZM830.789 42.6953C830.789 43.1211 830.676 43.5 830.449 43.832C830.227 44.1641 829.924 44.4238 829.541 44.6113C829.986 44.8027 830.338 45.082 830.596 45.4492C830.857 45.8164 830.988 46.2324 830.988 46.6973C830.988 47.4355 830.738 48.0234 830.238 48.4609C829.742 48.8984 829.088 49.1172 828.275 49.1172C827.455 49.1172 826.797 48.8984 826.301 48.4609C825.809 48.0195 825.562 47.4316 825.562 46.6973C825.562 46.2363 825.688 45.8203 825.938 45.4492C826.191 45.0781 826.541 44.7969 826.986 44.6055C826.607 44.418 826.309 44.1582 826.09 43.8262C825.871 43.4941 825.762 43.1172 825.762 42.6953C825.762 41.9766 825.992 41.4062 826.453 40.9844C826.914 40.5625 827.521 40.3516 828.275 40.3516C829.025 40.3516 829.631 40.5625 830.092 40.9844C830.557 41.4062 830.789 41.9766 830.789 42.6953ZM829.904 46.6738C829.904 46.1973 829.752 45.8086 829.447 45.5078C829.146 45.207 828.752 45.0566 828.264 45.0566C827.775 45.0566 827.383 45.2051 827.086 45.502C826.793 45.7988 826.646 46.1895 826.646 46.6738C826.646 47.1582 826.789 47.5391 827.074 47.8164C827.363 48.0938 827.764 48.2324 828.275 48.2324C828.783 48.2324 829.182 48.0938 829.471 47.8164C829.76 47.5352 829.904 47.1543 829.904 46.6738ZM828.275 41.2422C827.85 41.2422 827.504 41.375 827.238 41.6406C826.977 41.9023 826.846 42.2598 826.846 42.7129C826.846 43.1465 826.975 43.498 827.232 43.7676C827.494 44.0332 827.842 44.166 828.275 44.166C828.709 44.166 829.055 44.0332 829.312 43.7676C829.574 43.498 829.705 43.1465 829.705 42.7129C829.705 42.2793 829.57 41.9258 829.301 41.6523C829.031 41.3789 828.689 41.2422 828.275 41.2422Z" fill="black"/>
<path d="M25.25 0V29" stroke="black"/>
<path d="M18.875 0V20" stroke="black"/>
<path d="M38 0V29" stroke="black"/>
<path d="M31.625 0V20" stroke="black"/>
<path d="M50.75 0V29" stroke="black"/>
<path d="M44.375 0V20" stroke="black"/>
<path d="M63.5 0V38" stroke="black"/>
<path d="M57.125 0V20" stroke="black"/>
<path d="M76.25 0V29" stroke="black"/>
<path d="M69.875 0V20" stroke="black"/>
<path d="M89 0V29" stroke="black"/>
<path d="M82.625 0V20" stroke="black"/>
<path d="M101.75 0V29" stroke="black"/>
<path d="M95.375 0V20" stroke="black"/>
<path d="M114.5 0V38" stroke="black"/>
<path d="M108.125 0V20" stroke="black"/>
<path d="M12.5 0V38" stroke="black"/>
<path d="M127.25 0V29" stroke="black"/>
<path d="M120.875 0V20" stroke="black"/>
<path d="M140 0V29" stroke="black"/>
<path d="M133.625 0V20" stroke="black"/>
<path d="M152.75 0V29" stroke="black"/>
<path d="M146.375 0V20" stroke="black"/>
<path d="M165.5 0V38" stroke="black"/>
<path d="M159.125 0V20" stroke="black"/>
<path d="M178.25 0V29" stroke="black"/>
<path d="M171.875 0V20" stroke="black"/>
<path d="M191 0V29" stroke="black"/>
<path d="M184.625 0V20" stroke="black"/>
<path d="M203.75 0V29" stroke="black"/>
<path d="M197.375 0V20" stroke="black"/>
<path d="M216.5 0V38" stroke="black"/>
<path d="M210.125 0V20" stroke="black"/>
<path d="M114.5 0V38" stroke="black"/>
<path d="M229.25 0V29" stroke="black"/>
<path d="M222.875 0V20" stroke="black"/>
<path d="M242 0V29" stroke="black"/>
<path d="M235.625 0V20" stroke="black"/>
<path d="M254.75 0V29" stroke="black"/>
<path d="M248.375 0V20" stroke="black"/>
<path d="M267.5 0V38" stroke="black"/>
<path d="M261.125 0V20" stroke="black"/>
<path d="M280.25 0V29" stroke="black"/>
<path d="M273.875 0V20" stroke="black"/>
<path d="M293 0V29" stroke="black"/>
<path d="M286.625 0V20" stroke="black"/>
<path d="M305.75 0V29" stroke="black"/>
<path d="M299.375 0V20" stroke="black"/>
<path d="M318.5 0V38" stroke="black"/>
<path d="M312.125 0V20" stroke="black"/>
<path d="M216.5 0V38" stroke="black"/>
<path d="M331.25 0V29" stroke="black"/>
<path d="M324.875 0V20" stroke="black"/>
<path d="M344 0V29" stroke="black"/>
<path d="M337.625 0V20" stroke="black"/>
<path d="M356.75 0V29" stroke="black"/>
<path d="M350.375 0V20" stroke="black"/>
<path d="M369.5 0V38" stroke="black"/>
<path d="M363.125 0V20" stroke="black"/>
<path d="M382.25 0V29" stroke="black"/>
<path d="M375.875 0V20" stroke="black"/>
<path d="M395 0V29" stroke="black"/>
<path d="M388.625 0V20" stroke="black"/>
<path d="M407.75 0V29" stroke="black"/>
<path d="M401.375 0V20" stroke="black"/>
<path d="M420.5 0V38" stroke="black"/>
<path d="M414.125 0V20" stroke="black"/>
<path d="M318.5 0V38" stroke="black"/>
<path d="M433.25 0V29" stroke="black"/>
<path d="M426.875 0V20" stroke="black"/>
<path d="M446 0V29" stroke="black"/>
<path d="M439.625 0V20" stroke="black"/>
<path d="M458.75 0V29" stroke="black"/>
<path d="M452.375 0V20" stroke="black"/>
<path d="M471.5 0V38" stroke="black"/>
<path d="M465.125 0V20" stroke="black"/>
<path d="M484.25 0V29" stroke="black"/>
<path d="M477.875 0V20" stroke="black"/>
<path d="M497 0V29" stroke="black"/>
<path d="M490.625 0V20" stroke="black"/>
<path d="M509.75 0V29" stroke="black"/>
<path d="M503.375 0V20" stroke="black"/>
<path d="M522.5 0V38" stroke="black"/>
<path d="M516.125 0V20" stroke="black"/>
<path d="M420.5 0V38" stroke="black"/>
<path d="M535.25 0V29" stroke="black"/>
<path d="M528.875 0V20" stroke="black"/>
<path d="M548 0V29" stroke="black"/>
<path d="M541.625 0V20" stroke="black"/>
<path d="M560.75 0V29" stroke="black"/>
<path d="M554.375 0V20" stroke="black"/>
<path d="M573.5 0V38" stroke="black"/>
<path d="M567.125 0V20" stroke="black"/>
<path d="M586.25 0V29" stroke="black"/>
<path d="M579.875 0V20" stroke="black"/>
<path d="M599 0V29" stroke="black"/>
<path d="M592.625 0V20" stroke="black"/>
<path d="M611.75 0V29" stroke="black"/>
<path d="M605.375 0V20" stroke="black"/>
<path d="M624.5 0V38" stroke="black"/>
<path d="M618.125 0V20" stroke="black"/>
<path d="M522.5 0V38" stroke="black"/>
<path d="M637.25 0V29" stroke="black"/>
<path d="M630.875 0V20" stroke="black"/>
<path d="M650 0V29" stroke="black"/>
<path d="M643.625 0V20" stroke="black"/>
<path d="M662.75 0V29" stroke="black"/>
<path d="M656.375 0V20" stroke="black"/>
<path d="M675.5 0V38" stroke="black"/>
<path d="M669.125 0V20" stroke="black"/>
<path d="M688.25 0V29" stroke="black"/>
<path d="M681.875 0V20" stroke="black"/>
<path d="M701 0V29" stroke="black"/>
<path d="M694.625 0V20" stroke="black"/>
<path d="M713.75 0V29" stroke="black"/>
<path d="M707.375 0V20" stroke="black"/>
<path d="M726.5 0V38" stroke="black"/>
<path d="M720.125 0V20" stroke="black"/>
<path d="M624.5 0V38" stroke="black"/>
<path d="M739.25 0V29" stroke="black"/>
<path d="M732.875 0V20" stroke="black"/>
<path d="M752 0V29" stroke="black"/>
<path d="M745.625 0V20" stroke="black"/>
<path d="M764.75 0V29" stroke="black"/>
<path d="M758.375 0V20" stroke="black"/>
<path d="M777.5 0V38" stroke="black"/>
<path d="M771.125 0V20" stroke="black"/>
<path d="M790.25 0V29" stroke="black"/>
<path d="M783.875 0V20" stroke="black"/>
<path d="M803 0V29" stroke="black"/>
<path d="M796.625 0V20" stroke="black"/>
<path d="M815.75 0V29" stroke="black"/>
<path d="M809.375 0V20" stroke="black"/>
<path d="M828.5 0V38" stroke="black"/>
<path d="M822.125 0V20" stroke="black"/>
<path d="M726.5 0V38" stroke="black"/>
</svg>
