<svg width="721" height="360" viewBox="0 0 721 360" fill="none" xmlns="http://www.w3.org/2000/svg">
<path fill-rule="evenodd" clip-rule="evenodd" d="M720.15 0H0.149902V360L720.15 0ZM455.15 66H65.6499V261.5L455.15 66Z" fill="#D4D4D4" fill-opacity="0.3"/>
<path d="M49.6484 48L49.6484 49.0899L42.4238 49.0899L43.2265 51.2754L42.2422 51.2754L41.0761 48.17L41.0761 48L49.6484 48ZM49.6484 87.0293L49.6484 92.6192L48.8691 92.6192L45.5879 89.6661C45.0918 89.2286 44.6894 88.9278 44.3808 88.7637C44.0683 88.5957 43.7461 88.5118 43.414 88.5118C42.9687 88.5118 42.6035 88.6465 42.3183 88.9161C42.0332 89.1856 41.8906 89.545 41.8906 89.9942C41.8906 90.5332 42.0449 90.9532 42.3535 91.2539C42.6582 91.5508 43.0839 91.6993 43.6308 91.6993L43.6308 92.7832C42.8457 92.7832 42.2109 92.5313 41.7265 92.0274C41.2422 91.5196 41 90.8418 41 89.9942C41 89.2012 41.2089 88.5743 41.6269 88.1133C42.041 87.6524 42.5937 87.4219 43.2851 87.4219C44.125 87.4219 45.125 87.9571 46.2851 89.0274L48.7636 91.3125L48.7636 87.0293L49.6484 87.0293ZM44.8554 133.166L44.8554 132.351C44.8476 131.84 44.7129 131.437 44.4511 131.144C44.1894 130.851 43.8359 130.705 43.3906 130.705C42.3906 130.705 41.8906 131.203 41.8906 132.199C41.8906 132.668 42.0254 133.043 42.2949 133.324C42.5605 133.601 42.914 133.74 43.3554 133.74L43.3554 134.824C42.6796 134.824 42.1191 134.578 41.6738 134.086C41.2246 133.59 41 132.961 41 132.199C41 131.394 41.2129 130.764 41.6386 130.307C42.0644 129.849 42.6562 129.621 43.414 129.621C43.7851 129.621 44.1445 129.742 44.4922 129.984C44.8398 130.223 45.0996 130.549 45.2714 130.963C45.4199 130.494 45.666 130.133 46.0097 129.879C46.3535 129.621 46.7734 129.492 47.2695 129.492C48.0351 129.492 48.6425 129.742 49.0918 130.242C49.541 130.742 49.7656 131.392 49.7656 132.193C49.7656 132.994 49.5488 133.646 49.1152 134.15C48.6816 134.65 48.1093 134.9 47.3984 134.9L47.3984 133.81C47.8476 133.81 48.207 133.664 48.4765 133.371C48.7461 133.078 48.8808 132.685 48.8808 132.193C48.8808 131.67 48.7441 131.269 48.4707 130.992C48.1972 130.715 47.8046 130.576 47.2929 130.576C46.7968 130.576 46.416 130.728 46.1504 131.033C45.8847 131.338 45.748 131.777 45.7402 132.351L45.7402 133.166L44.8554 133.166ZM46.7832 169.915L46.7832 168.732L47.6679 168.732L47.6679 169.915L49.6484 169.915L49.6484 171.005L47.6679 171.005L47.6679 174.89L47.0293 174.89L41.1172 171.07L41.1172 169.915L46.7832 169.915ZM46.7832 173.66L46.7832 171.005L42.5996 171.005L42.8339 171.134L46.7832 173.66ZM45.3711 213.861L41.1172 213.427L41.1172 209.056L42.1191 209.056L42.1191 212.508L44.4453 212.765C44.1992 212.347 44.0761 211.873 44.0761 211.342C44.0761 210.564 44.3339 209.947 44.8496 209.49C45.3613 209.033 46.0546 208.804 46.9296 208.804C47.8086 208.804 48.5019 209.043 49.0097 209.519C49.5136 209.992 49.7656 210.654 49.7656 211.506C49.7656 212.259 49.5566 212.875 49.1386 213.351C48.7207 213.828 48.1425 214.099 47.4043 214.166L47.4043 213.14C47.8925 213.074 48.2617 212.9 48.5117 212.619C48.7578 212.338 48.8808 211.967 48.8808 211.506C48.8808 211.002 48.7089 210.607 48.3652 210.322C48.0214 210.033 47.5468 209.888 46.9414 209.888C46.3711 209.888 45.914 210.045 45.5703 210.357C45.2226 210.666 45.0488 211.078 45.0488 211.593C45.0488 212.066 45.1523 212.437 45.3593 212.707L45.5937 212.994L45.3711 213.861ZM41.1113 249.357L42.0312 249.357L42.0312 249.556C42.0468 250.4 42.2968 251.072 42.7812 251.572C43.2656 252.072 43.9472 252.361 44.8261 252.439C44.3105 251.99 44.0527 251.376 44.0527 250.599C44.0527 249.857 44.3144 249.265 44.8379 248.824C45.3613 248.378 46.0371 248.156 46.8652 248.156C47.7441 248.156 48.4472 248.396 48.9746 248.876C49.5019 249.353 49.7656 249.993 49.7656 250.798C49.7656 251.615 49.4531 252.277 48.8281 252.784C48.1992 253.292 47.3906 253.546 46.4023 253.546L45.9863 253.546C44.416 253.546 43.2168 253.212 42.3886 252.544C41.5566 251.872 41.1308 250.874 41.1113 249.55L41.1113 249.357ZM44.955 250.781C44.955 251.152 45.0664 251.493 45.289 251.806C45.5117 252.118 45.791 252.335 46.1269 252.456L46.5254 252.456C47.2285 252.456 47.7949 252.298 48.2246 251.982C48.6543 251.665 48.8691 251.271 48.8691 250.798C48.8691 250.31 48.6894 249.927 48.33 249.65C47.9707 249.368 47.5 249.228 46.9179 249.228C46.332 249.228 45.8593 249.37 45.5 249.656C45.1367 249.937 44.955 250.312 44.955 250.781ZM41.7265 287.314L49.6484 290.848L49.6484 291.984L42.0078 288.463L42.0078 293.08L41.1172 293.08L41.1172 287.314L41.7265 287.314ZM43.3437 327.199C43.7695 327.199 44.1484 327.312 44.4804 327.539C44.8125 327.761 45.0722 328.064 45.2597 328.447C45.4511 328.002 45.7304 327.65 46.0976 327.392C46.4648 327.131 46.8808 327 47.3457 327C48.0839 327 48.6718 327.25 49.1093 327.75C49.5468 328.246 49.7656 328.9 49.7656 329.713C49.7656 330.533 49.5468 331.191 49.1093 331.687C48.6679 332.179 48.08 332.425 47.3457 332.425C46.8847 332.425 46.4687 332.3 46.0976 332.05C45.7265 331.797 45.4453 331.447 45.2539 331.002C45.0664 331.381 44.8066 331.679 44.4746 331.898C44.1425 332.117 43.7656 332.226 43.3437 332.226C42.625 332.226 42.0546 331.996 41.6328 331.535C41.2109 331.074 41 330.466 41 329.713C41 328.963 41.2109 328.357 41.6328 327.896C42.0546 327.431 42.625 327.199 43.3437 327.199ZM47.3222 328.084C46.8457 328.084 46.457 328.236 46.1562 328.541C45.8554 328.841 45.705 329.236 45.705 329.724C45.705 330.213 45.8535 330.605 46.1504 330.902C46.4472 331.195 46.8379 331.341 47.3222 331.341C47.8066 331.341 48.1875 331.199 48.4648 330.914C48.7422 330.625 48.8808 330.224 48.8808 329.713C48.8808 329.205 48.7422 328.806 48.4648 328.517C48.1836 328.228 47.8027 328.084 47.3222 328.084ZM41.8906 329.713C41.8906 330.138 42.0234 330.484 42.289 330.75C42.5507 331.011 42.9082 331.142 43.3613 331.142C43.7949 331.142 44.1464 331.013 44.416 330.756C44.6816 330.494 44.8144 330.146 44.8144 329.713C44.8144 329.279 44.6816 328.933 44.416 328.675C44.1464 328.414 43.7949 328.283 43.3613 328.283C42.9277 328.283 42.5742 328.418 42.3007 328.687C42.0273 328.957 41.8906 329.298 41.8906 329.713Z" fill="black"/>
<path d="M-0.000488281 130.826L37.9995 130.826" stroke="black"/>
<path d="M-0.000488281 126.826L19.9995 126.826" stroke="black"/>
<path d="M-0.000488281 122.826L19.9995 122.826" stroke="black"/>
<path d="M-0.000488281 118.826L19.9995 118.826" stroke="black"/>
<path d="M-0.000488281 114.826L19.9995 114.826" stroke="black"/>
<path d="M-0.000488281 110.826L28.9995 110.826" stroke="black"/>
<path d="M-0.000488281 106.826L19.9995 106.826" stroke="black"/>
<path d="M-0.000488281 102.826L19.9995 102.826" stroke="black"/>
<path d="M-0.000488281 98.8262L19.9995 98.8262" stroke="black"/>
<path d="M-0.000488281 94.8262L19.9995 94.8262" stroke="black"/>
<path d="M-0.000488281 90.8262L37.9995 90.8262" stroke="black"/>
<path d="M-0.000488281 170.826L37.9995 170.826" stroke="black"/>
<path d="M-0.000488281 166.826L19.9995 166.826" stroke="black"/>
<path d="M-0.000488281 162.826L19.9995 162.826" stroke="black"/>
<path d="M-0.000488281 158.826L19.9995 158.826" stroke="black"/>
<path d="M-0.000488281 154.826L19.9995 154.826" stroke="black"/>
<path d="M-0.000488281 150.826L28.9995 150.826" stroke="black"/>
<path d="M-0.000488281 146.826L19.9995 146.826" stroke="black"/>
<path d="M-0.000488281 142.826L19.9995 142.826" stroke="black"/>
<path d="M-0.000488281 138.826L19.9995 138.826" stroke="black"/>
<path d="M-0.000488281 134.826L19.9995 134.826" stroke="black"/>
<path d="M-0.000488281 130.826L37.9995 130.826" stroke="black"/>
<path d="M-0.000488281 210.826L37.9995 210.826" stroke="black"/>
<path d="M-0.000488281 206.826L19.9995 206.826" stroke="black"/>
<path d="M-0.000488281 202.826L19.9995 202.826" stroke="black"/>
<path d="M-0.000488281 198.826L19.9995 198.826" stroke="black"/>
<path d="M-0.000488281 194.826L19.9995 194.826" stroke="black"/>
<path d="M-0.000488281 190.826L28.9995 190.826" stroke="black"/>
<path d="M-0.000488281 186.826L19.9995 186.826" stroke="black"/>
<path d="M-0.000488281 182.826L19.9995 182.826" stroke="black"/>
<path d="M-0.000488281 178.826L19.9995 178.826" stroke="black"/>
<path d="M-0.000488281 174.826L19.9995 174.826" stroke="black"/>
<path d="M-0.000488281 170.826L37.9995 170.826" stroke="black"/>
<path d="M-0.000488281 250.826L37.9995 250.826" stroke="black"/>
<path d="M-0.000488281 246.826L19.9995 246.826" stroke="black"/>
<path d="M-0.000488281 242.826L19.9995 242.826" stroke="black"/>
<path d="M-0.000488281 238.826L19.9995 238.826" stroke="black"/>
<path d="M-0.000488281 234.826L19.9995 234.826" stroke="black"/>
<path d="M-0.000488281 230.826L28.9995 230.826" stroke="black"/>
<path d="M-0.000488281 226.826L19.9995 226.826" stroke="black"/>
<path d="M-0.000488281 222.826L19.9995 222.826" stroke="black"/>
<path d="M-0.000488281 218.826L19.9995 218.826" stroke="black"/>
<path d="M-0.000488281 214.826L19.9995 214.826" stroke="black"/>
<path d="M-0.000488281 210.826L37.9995 210.826" stroke="black"/>
<path d="M-0.000488281 290.826L37.9995 290.826" stroke="black"/>
<path d="M-0.000488281 286.826L19.9995 286.826" stroke="black"/>
<path d="M-0.000488281 282.826L19.9995 282.826" stroke="black"/>
<path d="M-0.000488281 278.826L19.9995 278.826" stroke="black"/>
<path d="M-0.000488281 274.826L19.9995 274.826" stroke="black"/>
<path d="M-0.000488281 270.826L28.9995 270.826" stroke="black"/>
<path d="M-0.000488281 266.826L19.9995 266.826" stroke="black"/>
<path d="M-0.000488281 262.826L19.9995 262.826" stroke="black"/>
<path d="M-0.000488281 258.826L19.9995 258.826" stroke="black"/>
<path d="M-0.000488281 254.826L19.9995 254.826" stroke="black"/>
<path d="M-0.000488281 250.826L37.9995 250.826" stroke="black"/>
<path d="M-0.000488281 330.826L37.9995 330.826" stroke="black"/>
<path d="M-0.000488281 326.826L19.9995 326.826" stroke="black"/>
<path d="M-0.000488281 322.826L19.9995 322.826" stroke="black"/>
<path d="M-0.000488281 318.826L19.9995 318.826" stroke="black"/>
<path d="M-0.000488281 314.826L19.9995 314.826" stroke="black"/>
<path d="M-0.000488281 310.826L28.9995 310.826" stroke="black"/>
<path d="M-0.000488281 306.826L19.9995 306.826" stroke="black"/>
<path d="M-0.000488281 302.826L19.9995 302.826" stroke="black"/>
<path d="M-0.000488281 298.826L19.9995 298.826" stroke="black"/>
<path d="M-0.000488281 294.826L19.9995 294.826" stroke="black"/>
<path d="M-0.000488281 290.826L37.9995 290.826" stroke="black"/>
<path d="M-0.000488281 330.826L37.9995 330.826" stroke="black"/>
<path d="M-0.000488281 90.8262L37.9995 90.8262" stroke="black"/>
<path d="M-0.000488281 86.8262L19.9995 86.8262" stroke="black"/>
<path d="M-0.000488281 82.8262L19.9995 82.8262" stroke="black"/>
<path d="M-0.000488281 78.8262L19.9995 78.8262" stroke="black"/>
<path d="M-0.000488281 74.8262L19.9995 74.8262" stroke="black"/>
<path d="M-0.000488281 70.8262L28.9995 70.8262" stroke="black"/>
<path d="M-0.000488281 66.8262L19.9995 66.8262" stroke="black"/>
<path d="M-0.000488281 62.8262L19.9995 62.8262" stroke="black"/>
<path d="M-0.000488281 58.8262L19.9995 58.8262" stroke="black"/>
<path d="M-0.000488281 54.8262L19.9995 54.8262" stroke="black"/>
<path d="M-0.000488281 50.8262L37.9995 50.8262" stroke="black"/>
<path d="M-0.000488281 50.8262L37.9995 50.8262" stroke="black"/>
<path d="M-0.000488281 46.8262L19.9995 46.8262" stroke="black"/>
<path d="M-0.000488281 42.8262L19.9995 42.8262" stroke="black"/>
<path d="M-0.000488281 38.8262L19.9995 38.8262" stroke="black"/>
<path d="M-0.000488281 34.8262L19.9995 34.8262" stroke="black"/>
<path d="M-0.000488281 30.8262L28.9995 30.8262" stroke="black"/>
<path d="M-0.000488281 26.8262L9.99951 26.8262" stroke="black"/>
<path d="M-0.000488281 22.8262L9.99951 22.8262" stroke="black"/>
<path d="M-0.000488281 18.8262L9.99951 18.8262" stroke="black"/>
<path d="M-0.000488281 14.8262L9.99951 14.8262" stroke="black"/>
<path d="M-0.000488281 10.8262L9.99951 10.8262" stroke="black"/>
<path d="M50.7515 49H49.6616V41.7754L47.4761 42.5781V41.5938L50.5815 40.4277H50.7515V49ZM92.2593 49H86.6694V48.2207L89.6225 44.9395C90.06 44.4434 90.3608 44.041 90.5249 43.7324C90.6929 43.4199 90.7768 43.0977 90.7768 42.7656C90.7768 42.3203 90.6421 41.9551 90.3725 41.6699C90.103 41.3848 89.7436 41.2422 89.2944 41.2422C88.7554 41.2422 88.3354 41.3965 88.0347 41.7051C87.7378 42.0098 87.5893 42.4355 87.5893 42.9824H86.5054C86.5054 42.1973 86.7573 41.5625 87.2612 41.0781C87.769 40.5938 88.4468 40.3516 89.2944 40.3516C90.0874 40.3516 90.7143 40.5605 91.1753 40.9785C91.6362 41.3926 91.8667 41.9453 91.8667 42.6367C91.8667 43.4766 91.3315 44.4766 90.2612 45.6367L87.9761 48.1152H92.2593V49ZM130.702 44.207H131.517C132.028 44.1992 132.431 44.0645 132.724 43.8027C133.017 43.541 133.163 43.1875 133.163 42.7422C133.163 41.7422 132.665 41.2422 131.669 41.2422C131.2 41.2422 130.825 41.377 130.544 41.6465C130.267 41.9121 130.128 42.2656 130.128 42.707H129.044C129.044 42.0312 129.29 41.4707 129.782 41.0254C130.278 40.5762 130.907 40.3516 131.669 40.3516C132.474 40.3516 133.104 40.5645 133.561 40.9902C134.019 41.416 134.247 42.0078 134.247 42.7656C134.247 43.1367 134.126 43.4961 133.884 43.8438C133.645 44.1914 133.319 44.4512 132.905 44.623C133.374 44.7715 133.735 45.0176 133.989 45.3613C134.247 45.7051 134.376 46.125 134.376 46.6211C134.376 47.3867 134.126 47.9941 133.626 48.4434C133.126 48.8926 132.476 49.1172 131.675 49.1172C130.874 49.1172 130.222 48.9004 129.718 48.4668C129.218 48.0332 128.968 47.4609 128.968 46.75H130.058C130.058 47.1992 130.204 47.5586 130.497 47.8281C130.79 48.0977 131.183 48.2324 131.675 48.2324C132.198 48.2324 132.599 48.0957 132.876 47.8223C133.153 47.5488 133.292 47.1562 133.292 46.6445C133.292 46.1484 133.14 45.7676 132.835 45.502C132.53 45.2363 132.091 45.0996 131.517 45.0918H130.702V44.207ZM173.183 46.1348H174.366V47.0195H173.183V49H172.093V47.0195H168.208V46.3809L172.028 40.4688H173.183V46.1348ZM169.438 46.1348H172.093V41.9512L171.964 42.1855L169.438 46.1348ZM208.585 44.7227L209.019 40.4688H213.39V41.4707H209.938L209.681 43.7969C210.099 43.5508 210.573 43.4277 211.104 43.4277C211.882 43.4277 212.499 43.6855 212.956 44.2012C213.413 44.7129 213.642 45.4062 213.642 46.2812C213.642 47.1602 213.403 47.8535 212.927 48.3613C212.454 48.8652 211.792 49.1172 210.94 49.1172C210.187 49.1172 209.571 48.9082 209.095 48.4902C208.618 48.0723 208.347 47.4941 208.28 46.7559H209.306C209.372 47.2441 209.546 47.6133 209.827 47.8633C210.108 48.1094 210.479 48.2324 210.94 48.2324C211.444 48.2324 211.839 48.0605 212.124 47.7168C212.413 47.373 212.558 46.8984 212.558 46.293C212.558 45.7227 212.401 45.2656 212.089 44.9219C211.78 44.5742 211.368 44.4004 210.853 44.4004C210.38 44.4004 210.009 44.5039 209.739 44.7109L209.452 44.9453L208.585 44.7227ZM251.821 40.4629V41.3828H251.622C250.778 41.3984 250.106 41.6484 249.606 42.1328C249.106 42.6172 248.817 43.2988 248.739 44.1777C249.188 43.6621 249.802 43.4043 250.579 43.4043C251.321 43.4043 251.913 43.666 252.354 44.1895C252.8 44.7129 253.022 45.3887 253.022 46.2168C253.022 47.0957 252.782 47.7988 252.302 48.3262C251.825 48.8535 251.185 49.1172 250.38 49.1172C249.563 49.1172 248.901 48.8047 248.394 48.1797C247.886 47.5508 247.632 46.7422 247.632 45.7539V45.3379C247.632 43.7676 247.966 42.5684 248.634 41.7402C249.306 40.9082 250.304 40.4824 251.628 40.4629H251.821ZM250.397 44.3066C250.026 44.3066 249.685 44.418 249.372 44.6406C249.06 44.8633 248.843 45.1426 248.722 45.4785V45.877C248.722 46.5801 248.88 47.1465 249.196 47.5762C249.513 48.0059 249.907 48.2207 250.38 48.2207C250.868 48.2207 251.251 48.041 251.528 47.6816C251.81 47.3223 251.95 46.8516 251.95 46.2695C251.95 45.6836 251.808 45.2109 251.522 44.8516C251.241 44.4883 250.866 44.3066 250.397 44.3066ZM292.556 41.0781L289.022 49H287.886L291.407 41.3594H286.79V40.4688H292.556V41.0781ZM331.702 42.6953C331.702 43.1211 331.589 43.5 331.362 43.832C331.14 44.1641 330.837 44.4238 330.454 44.6113C330.899 44.8027 331.251 45.082 331.509 45.4492C331.77 45.8164 331.901 46.2324 331.901 46.6973C331.901 47.4355 331.651 48.0234 331.151 48.4609C330.655 48.8984 330.001 49.1172 329.188 49.1172C328.368 49.1172 327.71 48.8984 327.214 48.4609C326.722 48.0195 326.476 47.4316 326.476 46.6973C326.476 46.2363 326.601 45.8203 326.851 45.4492C327.104 45.0781 327.454 44.7969 327.899 44.6055C327.52 44.418 327.222 44.1582 327.003 43.8262C326.784 43.4941 326.675 43.1172 326.675 42.6953C326.675 41.9766 326.905 41.4062 327.366 40.9844C327.827 40.5625 328.435 40.3516 329.188 40.3516C329.938 40.3516 330.544 40.5625 331.005 40.9844C331.47 41.4062 331.702 41.9766 331.702 42.6953ZM330.817 46.6738C330.817 46.1973 330.665 45.8086 330.36 45.5078C330.06 45.207 329.665 45.0566 329.177 45.0566C328.688 45.0566 328.296 45.2051 327.999 45.502C327.706 45.7988 327.56 46.1895 327.56 46.6738C327.56 47.1582 327.702 47.5391 327.987 47.8164C328.276 48.0938 328.677 48.2324 329.188 48.2324C329.696 48.2324 330.095 48.0938 330.384 47.8164C330.673 47.5352 330.817 47.1543 330.817 46.6738ZM329.188 41.2422C328.763 41.2422 328.417 41.375 328.151 41.6406C327.89 41.9023 327.759 42.2598 327.759 42.7129C327.759 43.1465 327.888 43.498 328.145 43.7676C328.407 44.0332 328.755 44.166 329.188 44.166C329.622 44.166 329.968 44.0332 330.226 43.7676C330.487 43.498 330.618 43.1465 330.618 42.7129C330.618 42.2793 330.483 41.9258 330.214 41.6523C329.944 41.3789 329.603 41.2422 329.188 41.2422ZM373.14 45.25C372.913 45.5195 372.642 45.7363 372.325 45.9004C372.013 46.0645 371.669 46.1465 371.294 46.1465C370.802 46.1465 370.372 46.0254 370.005 45.7832C369.642 45.541 369.36 45.2012 369.161 44.7637C368.962 44.3223 368.862 43.8359 368.862 43.3047C368.862 42.7344 368.97 42.2207 369.185 41.7637C369.403 41.3066 369.712 40.957 370.11 40.7148C370.509 40.4727 370.974 40.3516 371.505 40.3516C372.349 40.3516 373.013 40.668 373.497 41.3008C373.985 41.9297 374.229 42.7891 374.229 43.8789V44.1953C374.229 45.8555 373.901 47.0684 373.245 47.834C372.589 48.5957 371.599 48.9863 370.274 49.0059H370.063V48.0918H370.292C371.187 48.0762 371.874 47.8438 372.354 47.3945C372.835 46.9414 373.097 46.2266 373.14 45.25ZM371.47 45.25C371.833 45.25 372.167 45.1387 372.472 44.916C372.78 44.6934 373.005 44.418 373.145 44.0898V43.6562C373.145 42.9453 372.991 42.3672 372.683 41.9219C372.374 41.4766 371.983 41.2539 371.511 41.2539C371.034 41.2539 370.651 41.4375 370.362 41.8047C370.073 42.168 369.929 42.6484 369.929 43.2461C369.929 43.8281 370.067 44.3086 370.345 44.6875C370.626 45.0625 371.001 45.25 371.47 45.25ZM409.052 49H407.962V41.7754L405.776 42.5781V41.5938L408.882 40.4277H409.052V49ZM417.577 45.3613C417.577 46.6309 417.36 47.5742 416.927 48.1914C416.493 48.8086 415.815 49.1172 414.894 49.1172C413.983 49.1172 413.31 48.8164 412.872 48.2148C412.435 47.6094 412.208 46.707 412.192 45.5078V44.0605C412.192 42.8066 412.409 41.875 412.843 41.2656C413.276 40.6562 413.956 40.3516 414.882 40.3516C415.8 40.3516 416.476 40.6465 416.909 41.2363C417.343 41.8223 417.565 42.7285 417.577 43.9551V45.3613ZM416.493 43.8789C416.493 42.9609 416.364 42.293 416.106 41.875C415.849 41.4531 415.44 41.2422 414.882 41.2422C414.327 41.2422 413.923 41.4512 413.669 41.8691C413.415 42.2871 413.284 42.9297 413.276 43.7969V45.5312C413.276 46.4531 413.409 47.1348 413.675 47.5762C413.944 48.0137 414.351 48.2324 414.894 48.2324C415.429 48.2324 415.825 48.0254 416.083 47.6113C416.345 47.1973 416.481 46.5449 416.493 45.6543V43.8789ZM449.317 49H448.228V41.7754L446.042 42.5781V41.5938L449.147 40.4277H449.317V49ZM456.056 49H454.966V41.7754L452.78 42.5781V41.5938L455.886 40.4277H456.056V49ZM486.606 49H485.517V41.7754L483.331 42.5781V41.5938L486.437 40.4277H486.606V49ZM495.372 49H489.782V48.2207L492.735 44.9395C493.173 44.4434 493.474 44.041 493.638 43.7324C493.806 43.4199 493.89 43.0977 493.89 42.7656C493.89 42.3203 493.755 41.9551 493.485 41.6699C493.216 41.3848 492.856 41.2422 492.407 41.2422C491.868 41.2422 491.448 41.3965 491.147 41.7051C490.851 42.0098 490.702 42.4355 490.702 42.9824H489.618C489.618 42.1973 489.87 41.5625 490.374 41.0781C490.882 40.5938 491.56 40.3516 492.407 40.3516C493.2 40.3516 493.827 40.5605 494.288 40.9785C494.749 41.3926 494.979 41.9453 494.979 42.6367C494.979 43.4766 494.444 44.4766 493.374 45.6367L491.089 48.1152H495.372V49ZM526.872 49H525.783V41.7754L523.598 42.5781V41.5938L526.702 40.4277H526.872V49ZM531.624 44.207H532.439C532.951 44.1992 533.353 44.0645 533.645 43.8027C533.938 43.541 534.085 43.1875 534.085 42.7422C534.085 41.7422 533.587 41.2422 532.591 41.2422C532.122 41.2422 531.747 41.377 531.466 41.6465C531.188 41.9121 531.051 42.2656 531.051 42.707H529.966C529.966 42.0312 530.212 41.4707 530.704 41.0254C531.2 40.5762 531.829 40.3516 532.591 40.3516C533.395 40.3516 534.026 40.5645 534.483 40.9902C534.94 41.416 535.169 42.0078 535.169 42.7656C535.169 43.1367 535.048 43.4961 534.806 43.8438C534.567 44.1914 534.241 44.4512 533.827 44.623C534.296 44.7715 534.657 45.0176 534.911 45.3613C535.169 45.7051 535.298 46.125 535.298 46.6211C535.298 47.3867 535.048 47.9941 534.548 48.4434C534.048 48.8926 533.398 49.1172 532.598 49.1172C531.797 49.1172 531.144 48.9004 530.64 48.4668C530.14 48.0332 529.89 47.4609 529.89 46.75H530.979C530.979 47.1992 531.126 47.5586 531.419 47.8281C531.712 48.0977 532.105 48.2324 532.598 48.2324C533.121 48.2324 533.52 48.0957 533.798 47.8223C534.075 47.5488 534.215 47.1562 534.215 46.6445C534.215 46.1484 534.061 45.7676 533.757 45.502C533.452 45.2363 533.014 45.0996 532.439 45.0918H531.624V44.207ZM567.138 49H566.048V41.7754L563.862 42.5781V41.5938L566.968 40.4277H567.138V49ZM574.89 46.1348H576.073V47.0195H574.89V49H573.8V47.0195H569.915V46.3809L573.735 40.4688H574.89V46.1348ZM571.145 46.1348H573.8V41.9512L573.671 42.1855L571.145 46.1348ZM607.403 49H606.313V41.7754L604.128 42.5781V41.5938L607.233 40.4277H607.403V49ZM611.077 44.7227L611.511 40.4688H615.882V41.4707H612.431L612.173 43.7969C612.591 43.5508 613.065 43.4277 613.597 43.4277C614.374 43.4277 614.991 43.6855 615.448 44.2012C615.905 44.7129 616.134 45.4062 616.134 46.2812C616.134 47.1602 615.895 47.8535 615.419 48.3613C614.946 48.8652 614.284 49.1172 613.433 49.1172C612.679 49.1172 612.063 48.9082 611.587 48.4902C611.11 48.0723 610.839 47.4941 610.772 46.7559H611.798C611.864 47.2441 612.038 47.6133 612.319 47.8633C612.601 48.1094 612.972 48.2324 613.433 48.2324C613.937 48.2324 614.331 48.0605 614.616 47.7168C614.905 47.373 615.05 46.8984 615.05 46.293C615.05 45.7227 614.894 45.2656 614.581 44.9219C614.272 44.5742 613.86 44.4004 613.345 44.4004C612.872 44.4004 612.501 44.5039 612.231 44.7109L611.944 44.9453L611.077 44.7227Z" fill="black"/>
<path d="M130.5 0V38" stroke="black"/>
<path d="M126.5 0V20" stroke="black"/>
<path d="M122.5 0V20" stroke="black"/>
<path d="M118.5 0V20" stroke="black"/>
<path d="M114.5 0V20" stroke="black"/>
<path d="M110.5 0V29" stroke="black"/>
<path d="M106.5 0V20" stroke="black"/>
<path d="M102.5 0V20" stroke="black"/>
<path d="M98.4995 0V20" stroke="black"/>
<path d="M94.4995 0V20" stroke="black"/>
<path d="M90.4995 0V38" stroke="black"/>
<path d="M170.5 0V38" stroke="black"/>
<path d="M166.5 0V20" stroke="black"/>
<path d="M162.5 0V20" stroke="black"/>
<path d="M158.5 0V20" stroke="black"/>
<path d="M154.5 0V20" stroke="black"/>
<path d="M150.5 0V29" stroke="black"/>
<path d="M146.5 0V20" stroke="black"/>
<path d="M142.5 0V20" stroke="black"/>
<path d="M138.5 0V20" stroke="black"/>
<path d="M134.5 0V20" stroke="black"/>
<path d="M130.5 0V38" stroke="black"/>
<path d="M210.5 0V38" stroke="black"/>
<path d="M206.5 0V20" stroke="black"/>
<path d="M202.5 0V20" stroke="black"/>
<path d="M198.5 0V20" stroke="black"/>
<path d="M194.5 0V20" stroke="black"/>
<path d="M190.5 0V29" stroke="black"/>
<path d="M186.5 0V20" stroke="black"/>
<path d="M182.5 0V20" stroke="black"/>
<path d="M178.5 0V20" stroke="black"/>
<path d="M174.5 0V20" stroke="black"/>
<path d="M170.5 0V38" stroke="black"/>
<path d="M250.5 0V38" stroke="black"/>
<path d="M246.5 0V20" stroke="black"/>
<path d="M242.5 0V20" stroke="black"/>
<path d="M238.5 0V20" stroke="black"/>
<path d="M234.5 0V20" stroke="black"/>
<path d="M230.5 0V29" stroke="black"/>
<path d="M226.5 0V20" stroke="black"/>
<path d="M222.5 0V20" stroke="black"/>
<path d="M218.5 0V20" stroke="black"/>
<path d="M214.5 0V20" stroke="black"/>
<path d="M210.5 0V38" stroke="black"/>
<path d="M290.5 0V38" stroke="black"/>
<path d="M286.5 0V20" stroke="black"/>
<path d="M282.5 0V20" stroke="black"/>
<path d="M278.5 0V20" stroke="black"/>
<path d="M274.5 0V20" stroke="black"/>
<path d="M270.5 0V29" stroke="black"/>
<path d="M266.5 0V20" stroke="black"/>
<path d="M262.5 0V20" stroke="black"/>
<path d="M258.5 0V20" stroke="black"/>
<path d="M254.5 0V20" stroke="black"/>
<path d="M250.5 0V38" stroke="black"/>
<path d="M330.5 0V38" stroke="black"/>
<path d="M326.5 0V20" stroke="black"/>
<path d="M322.5 0V20" stroke="black"/>
<path d="M318.5 0V20" stroke="black"/>
<path d="M314.5 0V20" stroke="black"/>
<path d="M310.5 0V29" stroke="black"/>
<path d="M306.5 0V20" stroke="black"/>
<path d="M302.5 0V20" stroke="black"/>
<path d="M298.5 0V20" stroke="black"/>
<path d="M294.5 0V20" stroke="black"/>
<path d="M290.5 0V38" stroke="black"/>
<path d="M370.5 0V38" stroke="black"/>
<path d="M366.5 0V20" stroke="black"/>
<path d="M362.5 0V20" stroke="black"/>
<path d="M358.5 0V20" stroke="black"/>
<path d="M354.5 0V20" stroke="black"/>
<path d="M350.5 0V29" stroke="black"/>
<path d="M346.5 0V20" stroke="black"/>
<path d="M342.5 0V20" stroke="black"/>
<path d="M338.5 0V20" stroke="black"/>
<path d="M334.5 0V20" stroke="black"/>
<path d="M330.5 0V38" stroke="black"/>
<path d="M410.5 0V38" stroke="black"/>
<path d="M406.5 0V20" stroke="black"/>
<path d="M402.5 0V20" stroke="black"/>
<path d="M398.5 0V20" stroke="black"/>
<path d="M394.5 0V20" stroke="black"/>
<path d="M390.5 0V29" stroke="black"/>
<path d="M386.5 0V20" stroke="black"/>
<path d="M382.5 0V20" stroke="black"/>
<path d="M378.5 0V20" stroke="black"/>
<path d="M374.5 0V20" stroke="black"/>
<path d="M370.5 0V38" stroke="black"/>
<path d="M450.5 0V38" stroke="black"/>
<path d="M446.5 0V20" stroke="black"/>
<path d="M442.5 0V20" stroke="black"/>
<path d="M438.5 0V20" stroke="black"/>
<path d="M434.5 0V20" stroke="black"/>
<path d="M430.5 0V29" stroke="black"/>
<path d="M426.5 0V20" stroke="black"/>
<path d="M422.5 0V20" stroke="black"/>
<path d="M418.5 0V20" stroke="black"/>
<path d="M414.5 0V20" stroke="black"/>
<path d="M410.5 0V38" stroke="black"/>
<path d="M490.5 0V38" stroke="black"/>
<path d="M486.5 0V20" stroke="black"/>
<path d="M482.5 0V20" stroke="black"/>
<path d="M478.5 0V20" stroke="black"/>
<path d="M474.5 0V20" stroke="black"/>
<path d="M470.5 0V29" stroke="black"/>
<path d="M466.5 0V20" stroke="black"/>
<path d="M462.5 0V20" stroke="black"/>
<path d="M458.5 0V20" stroke="black"/>
<path d="M454.5 0V20" stroke="black"/>
<path d="M450.5 0V38" stroke="black"/>
<path d="M530.5 0V38" stroke="black"/>
<path d="M526.5 0V20" stroke="black"/>
<path d="M522.5 0V20" stroke="black"/>
<path d="M518.5 0V20" stroke="black"/>
<path d="M514.5 0V20" stroke="black"/>
<path d="M510.5 0V29" stroke="black"/>
<path d="M506.5 0V20" stroke="black"/>
<path d="M502.5 0V20" stroke="black"/>
<path d="M498.5 0V20" stroke="black"/>
<path d="M494.5 0V20" stroke="black"/>
<path d="M490.5 0V38" stroke="black"/>
<path d="M570.5 0V38" stroke="black"/>
<path d="M566.5 0V20" stroke="black"/>
<path d="M562.5 0V20" stroke="black"/>
<path d="M558.5 0V20" stroke="black"/>
<path d="M554.5 0V20" stroke="black"/>
<path d="M550.5 0V29" stroke="black"/>
<path d="M546.5 0V20" stroke="black"/>
<path d="M542.5 0V20" stroke="black"/>
<path d="M538.5 0V20" stroke="black"/>
<path d="M534.5 0V20" stroke="black"/>
<path d="M530.5 0V38" stroke="black"/>
<path d="M610.5 0V38" stroke="black"/>
<path d="M606.5 0V20" stroke="black"/>
<path d="M602.5 0V20" stroke="black"/>
<path d="M598.5 0V20" stroke="black"/>
<path d="M594.5 0V20" stroke="black"/>
<path d="M590.5 0V29" stroke="black"/>
<path d="M586.5 0V20" stroke="black"/>
<path d="M582.5 0V20" stroke="black"/>
<path d="M578.5 0V20" stroke="black"/>
<path d="M574.5 0V20" stroke="black"/>
<path d="M570.5 0V38" stroke="black"/>
<path d="M630.5 0V29" stroke="black"/>
<path d="M626.5 0V20" stroke="black"/>
<path d="M622.5 0V20" stroke="black"/>
<path d="M618.5 0V20" stroke="black"/>
<path d="M614.5 0V20" stroke="black"/>
<path d="M610.5 0V38" stroke="black"/>
<path d="M90.4995 0V38" stroke="black"/>
<path d="M86.4995 0V20" stroke="black"/>
<path d="M82.4995 0V20" stroke="black"/>
<path d="M78.4995 0V20" stroke="black"/>
<path d="M74.4995 0V20" stroke="black"/>
<path d="M70.4995 0V29" stroke="black"/>
<path d="M66.4995 0V20" stroke="black"/>
<path d="M62.4995 0V20" stroke="black"/>
<path d="M58.4995 0V20" stroke="black"/>
<path d="M54.4995 0V20" stroke="black"/>
<path d="M50.4995 0V38" stroke="black"/>
<path d="M50.4995 0V38" stroke="black"/>
<path d="M46.4995 0V20" stroke="black"/>
<path d="M42.4995 0V20" stroke="black"/>
<path d="M38.4995 0V20" stroke="black"/>
<path d="M34.4995 0V20" stroke="black"/>
<path d="M30.4995 0V29" stroke="black"/>
<path d="M26.4995 0V10" stroke="black"/>
<path d="M22.4995 0V10" stroke="black"/>
<path d="M18.4995 0V10" stroke="black"/>
<path d="M14.4995 0V10" stroke="black"/>
<path d="M10.4995 0V10" stroke="black"/>
</svg>
