<svg width="721" height="360" viewBox="0 0 721 360" fill="none" xmlns="http://www.w3.org/2000/svg">
<path fill-rule="evenodd" clip-rule="evenodd" d="M720.15 0H0.149902V360L720.15 0ZM455.15 66H65.6499V261.5L455.15 66Z" fill="#D4D4D4" fill-opacity="0.3"/>
<path d="M49 112.31L49 113.4L41.7754 113.4L42.5781 115.586L41.5938 115.586L40.4277 112.48L40.4277 112.31L49 112.31ZM49 213.847L49 219.436L48.2207 219.436L44.9395 216.483C44.4434 216.046 44.041 215.745 43.7324 215.581C43.4199 215.413 43.0977 215.329 42.7656 215.329C42.3203 215.329 41.9551 215.464 41.6699 215.733C41.3848 216.003 41.2422 216.362 41.2422 216.811C41.2422 217.351 41.3965 217.77 41.7051 218.071C42.0098 218.368 42.4355 218.517 42.9824 218.517L42.9824 219.601C42.1973 219.601 41.5625 219.349 41.0781 218.845C40.5938 218.337 40.3516 217.659 40.3516 216.811C40.3516 216.018 40.5605 215.392 40.9785 214.931C41.3926 214.47 41.9453 214.239 42.6367 214.239C43.4766 214.239 44.4766 214.774 45.6367 215.845L48.1152 218.13L48.1152 213.847L49 213.847ZM44.207 319.516L44.207 318.702C44.1992 318.19 44.0645 317.787 43.8027 317.495C43.541 317.202 43.1875 317.055 42.7422 317.055C41.7422 317.055 41.2422 317.553 41.2422 318.549C41.2422 319.018 41.377 319.393 41.6465 319.674C41.9121 319.952 42.2656 320.09 42.707 320.09L42.707 321.174C42.0312 321.174 41.4707 320.928 41.0254 320.436C40.5762 319.94 40.3516 319.311 40.3516 318.549C40.3516 317.745 40.5645 317.114 40.9902 316.657C41.416 316.2 42.0078 315.971 42.7656 315.971C43.1367 315.971 43.4961 316.092 43.8438 316.334C44.1914 316.573 44.4512 316.899 44.623 317.313C44.7715 316.844 45.0176 316.483 45.3613 316.229C45.7051 315.971 46.125 315.842 46.6211 315.842C47.3867 315.842 47.9941 316.092 48.4434 316.592C48.8926 317.092 49.1172 317.743 49.1172 318.543C49.1172 319.344 48.9004 319.996 48.4668 320.5C48.0332 321 47.4609 321.25 46.75 321.25L46.75 320.161C47.1992 320.161 47.5586 320.014 47.8281 319.721C48.0977 319.428 48.2324 319.036 48.2324 318.543C48.2324 318.02 48.0957 317.62 47.8223 317.342C47.5488 317.065 47.1562 316.926 46.6445 316.926C46.1484 316.926 45.7676 317.078 45.502 317.383C45.2363 317.688 45.0996 318.127 45.0918 318.702L45.0918 319.516L44.207 319.516Z" fill="black"/>
<path d="M0 25.5762L10 25.5762" stroke="black"/>
<path d="M0 19.2012L10 19.2012" stroke="black"/>
<path d="M0 38.3262L29 38.3262" stroke="black"/>
<path d="M0 31.9512L10 31.9512" stroke="black"/>
<path d="M0 51.0762L29 51.0762" stroke="black"/>
<path d="M0 44.7012L20 44.7012" stroke="black"/>
<path d="M0 63.8262L38 63.8262" stroke="black"/>
<path d="M0 57.4512L20 57.4512" stroke="black"/>
<path d="M0 76.5762L29 76.5762" stroke="black"/>
<path d="M0 70.2012L20 70.2012" stroke="black"/>
<path d="M0 89.3262L29 89.3262" stroke="black"/>
<path d="M0 82.9512L20 82.9512" stroke="black"/>
<path d="M0 102.076L29 102.076" stroke="black"/>
<path d="M0 95.7012L20 95.7012" stroke="black"/>
<path d="M0 114.826L38 114.826" stroke="black"/>
<path d="M0 108.451L20 108.451" stroke="black"/>
<path d="M0 12.8262L10 12.8262" stroke="black"/>
<path d="M0 127.576L29 127.576" stroke="black"/>
<path d="M0 121.201L20 121.201" stroke="black"/>
<path d="M0 140.326L29 140.326" stroke="black"/>
<path d="M0 133.951L20 133.951" stroke="black"/>
<path d="M0 153.076L29 153.076" stroke="black"/>
<path d="M0 146.701L20 146.701" stroke="black"/>
<path d="M0 165.826L38 165.826" stroke="black"/>
<path d="M0 159.451L20 159.451" stroke="black"/>
<path d="M0 178.576L29 178.576" stroke="black"/>
<path d="M0 172.201L20 172.201" stroke="black"/>
<path d="M0 191.326L29 191.326" stroke="black"/>
<path d="M0 184.951L20 184.951" stroke="black"/>
<path d="M0 204.076L29 204.076" stroke="black"/>
<path d="M0 197.701L20 197.701" stroke="black"/>
<path d="M0 216.826L38 216.826" stroke="black"/>
<path d="M0 210.451L20 210.451" stroke="black"/>
<path d="M0 114.826L38 114.826" stroke="black"/>
<path d="M0 229.576L29 229.576" stroke="black"/>
<path d="M0 223.201L20 223.201" stroke="black"/>
<path d="M0 242.326L29 242.326" stroke="black"/>
<path d="M0 235.951L20 235.951" stroke="black"/>
<path d="M0 255.076L29 255.076" stroke="black"/>
<path d="M0 248.701L20 248.701" stroke="black"/>
<path d="M0 267.826L38 267.826" stroke="black"/>
<path d="M0 261.451L20 261.451" stroke="black"/>
<path d="M0 280.576L29 280.576" stroke="black"/>
<path d="M0 274.201L20 274.201" stroke="black"/>
<path d="M0 293.326L29 293.326" stroke="black"/>
<path d="M0 286.951L20 286.951" stroke="black"/>
<path d="M0 306.076L29 306.076" stroke="black"/>
<path d="M0 299.701L20 299.701" stroke="black"/>
<path d="M0 318.826L38 318.826" stroke="black"/>
<path d="M0 312.451L20 312.451" stroke="black"/>
<path d="M0 216.826L38 216.826" stroke="black"/>
<path d="M0 318.826L38 318.826" stroke="black"/>
<path d="M115.26 49H114.17V41.7754L111.984 42.5781V41.5938L115.09 40.4277H115.26V49ZM219.275 49H213.686V48.2207L216.639 44.9395C217.076 44.4434 217.377 44.041 217.541 43.7324C217.709 43.4199 217.793 43.0977 217.793 42.7656C217.793 42.3203 217.658 41.9551 217.389 41.6699C217.119 41.3848 216.76 41.2422 216.311 41.2422C215.771 41.2422 215.352 41.3965 215.051 41.7051C214.754 42.0098 214.605 42.4355 214.605 42.9824H213.521C213.521 42.1973 213.773 41.5625 214.277 41.0781C214.785 40.5938 215.463 40.3516 216.311 40.3516C217.104 40.3516 217.73 40.5605 218.191 40.9785C218.652 41.3926 218.883 41.9453 218.883 42.6367C218.883 43.4766 218.348 44.4766 217.277 45.6367L214.992 48.1152H219.275V49ZM317.25 44.207H318.064C318.576 44.1992 318.979 44.0645 319.271 43.8027C319.564 43.541 319.711 43.1875 319.711 42.7422C319.711 41.7422 319.213 41.2422 318.217 41.2422C317.748 41.2422 317.373 41.377 317.092 41.6465C316.814 41.9121 316.676 42.2656 316.676 42.707H315.592C315.592 42.0312 315.838 41.4707 316.33 41.0254C316.826 40.5762 317.455 40.3516 318.217 40.3516C319.021 40.3516 319.652 40.5645 320.109 40.9902C320.566 41.416 320.795 42.0078 320.795 42.7656C320.795 43.1367 320.674 43.4961 320.432 43.8438C320.193 44.1914 319.867 44.4512 319.453 44.623C319.922 44.7715 320.283 45.0176 320.537 45.3613C320.795 45.7051 320.924 46.125 320.924 46.6211C320.924 47.3867 320.674 47.9941 320.174 48.4434C319.674 48.8926 319.023 49.1172 318.223 49.1172C317.422 49.1172 316.77 48.9004 316.266 48.4668C315.766 48.0332 315.516 47.4609 315.516 46.75H316.605C316.605 47.1992 316.752 47.5586 317.045 47.8281C317.338 48.0977 317.73 48.2324 318.223 48.2324C318.746 48.2324 319.146 48.0957 319.424 47.8223C319.701 47.5488 319.84 47.1562 319.84 46.6445C319.84 46.1484 319.688 45.7676 319.383 45.502C319.078 45.2363 318.639 45.0996 318.064 45.0918H317.25V44.207ZM422.238 46.1348H423.422V47.0195H422.238V49H421.148V47.0195H417.264V46.3809L421.084 40.4688H422.238V46.1348ZM418.494 46.1348H421.148V41.9512L421.02 42.1855L418.494 46.1348ZM520.148 44.7227L520.582 40.4688H524.953V41.4707H521.502L521.244 43.7969C521.662 43.5508 522.137 43.4277 522.668 43.4277C523.445 43.4277 524.062 43.6855 524.52 44.2012C524.977 44.7129 525.205 45.4062 525.205 46.2812C525.205 47.1602 524.967 47.8535 524.49 48.3613C524.018 48.8652 523.355 49.1172 522.504 49.1172C521.75 49.1172 521.135 48.9082 520.658 48.4902C520.182 48.0723 519.91 47.4941 519.844 46.7559H520.869C520.936 47.2441 521.109 47.6133 521.391 47.8633C521.672 48.1094 522.043 48.2324 522.504 48.2324C523.008 48.2324 523.402 48.0605 523.688 47.7168C523.977 47.373 524.121 46.8984 524.121 46.293C524.121 45.7227 523.965 45.2656 523.652 44.9219C523.344 44.5742 522.932 44.4004 522.416 44.4004C521.943 44.4004 521.572 44.5039 521.303 44.7109L521.016 44.9453L520.148 44.7227ZM625.893 40.4629V41.3828H625.693C624.85 41.3984 624.178 41.6484 623.678 42.1328C623.178 42.6172 622.889 43.2988 622.811 44.1777C623.26 43.6621 623.873 43.4043 624.65 43.4043C625.393 43.4043 625.984 43.666 626.426 44.1895C626.871 44.7129 627.094 45.3887 627.094 46.2168C627.094 47.0957 626.854 47.7988 626.373 48.3262C625.896 48.8535 625.256 49.1172 624.451 49.1172C623.635 49.1172 622.973 48.8047 622.465 48.1797C621.957 47.5508 621.703 46.7422 621.703 45.7539V45.3379C621.703 43.7676 622.037 42.5684 622.705 41.7402C623.377 40.9082 624.375 40.4824 625.699 40.4629H625.893ZM624.469 44.3066C624.098 44.3066 623.756 44.418 623.443 44.6406C623.131 44.8633 622.914 45.1426 622.793 45.4785V45.877C622.793 46.5801 622.951 47.1465 623.268 47.5762C623.584 48.0059 623.979 48.2207 624.451 48.2207C624.939 48.2207 625.322 48.041 625.6 47.6816C625.881 47.3223 626.021 46.8516 626.021 46.2695C626.021 45.6836 625.879 45.2109 625.594 44.8516C625.312 44.4883 624.938 44.3066 624.469 44.3066Z" fill="black"/>
<path d="M25.25 0V29" stroke="black"/>
<path d="M18.875 0V20" stroke="black"/>
<path d="M38 0V29" stroke="black"/>
<path d="M31.625 0V20" stroke="black"/>
<path d="M50.75 0V29" stroke="black"/>
<path d="M44.375 0V20" stroke="black"/>
<path d="M63.5 0V38" stroke="black"/>
<path d="M57.125 0V20" stroke="black"/>
<path d="M76.25 0V29" stroke="black"/>
<path d="M69.875 0V20" stroke="black"/>
<path d="M89 0V29" stroke="black"/>
<path d="M82.625 0V20" stroke="black"/>
<path d="M101.75 0V29" stroke="black"/>
<path d="M95.375 0V20" stroke="black"/>
<path d="M114.5 0V38" stroke="black"/>
<path d="M108.125 0V20" stroke="black"/>
<path d="M12.5 0V10" stroke="black"/>
<path d="M127.25 0V29" stroke="black"/>
<path d="M120.875 0V20" stroke="black"/>
<path d="M140 0V29" stroke="black"/>
<path d="M133.625 0V20" stroke="black"/>
<path d="M152.75 0V29" stroke="black"/>
<path d="M146.375 0V20" stroke="black"/>
<path d="M165.5 0V38" stroke="black"/>
<path d="M159.125 0V20" stroke="black"/>
<path d="M178.25 0V29" stroke="black"/>
<path d="M171.875 0V20" stroke="black"/>
<path d="M191 0V29" stroke="black"/>
<path d="M184.625 0V20" stroke="black"/>
<path d="M203.75 0V29" stroke="black"/>
<path d="M197.375 0V20" stroke="black"/>
<path d="M216.5 0V38" stroke="black"/>
<path d="M210.125 0V20" stroke="black"/>
<path d="M114.5 0V38" stroke="black"/>
<path d="M229.25 0V29" stroke="black"/>
<path d="M222.875 0V20" stroke="black"/>
<path d="M242 0V29" stroke="black"/>
<path d="M235.625 0V20" stroke="black"/>
<path d="M254.75 0V29" stroke="black"/>
<path d="M248.375 0V20" stroke="black"/>
<path d="M267.5 0V38" stroke="black"/>
<path d="M261.125 0V20" stroke="black"/>
<path d="M280.25 0V29" stroke="black"/>
<path d="M273.875 0V20" stroke="black"/>
<path d="M293 0V29" stroke="black"/>
<path d="M286.625 0V20" stroke="black"/>
<path d="M305.75 0V29" stroke="black"/>
<path d="M299.375 0V20" stroke="black"/>
<path d="M318.5 0V38" stroke="black"/>
<path d="M312.125 0V20" stroke="black"/>
<path d="M216.5 0V38" stroke="black"/>
<path d="M331.25 0V29" stroke="black"/>
<path d="M324.875 0V20" stroke="black"/>
<path d="M344 0V29" stroke="black"/>
<path d="M337.625 0V20" stroke="black"/>
<path d="M356.75 0V29" stroke="black"/>
<path d="M350.375 0V20" stroke="black"/>
<path d="M369.5 0V38" stroke="black"/>
<path d="M363.125 0V20" stroke="black"/>
<path d="M382.25 0V29" stroke="black"/>
<path d="M375.875 0V20" stroke="black"/>
<path d="M395 0V29" stroke="black"/>
<path d="M388.625 0V20" stroke="black"/>
<path d="M407.75 0V29" stroke="black"/>
<path d="M401.375 0V20" stroke="black"/>
<path d="M420.5 0V38" stroke="black"/>
<path d="M414.125 0V20" stroke="black"/>
<path d="M318.5 0V38" stroke="black"/>
<path d="M433.25 0V29" stroke="black"/>
<path d="M426.875 0V20" stroke="black"/>
<path d="M446 0V29" stroke="black"/>
<path d="M439.625 0V20" stroke="black"/>
<path d="M458.75 0V29" stroke="black"/>
<path d="M452.375 0V20" stroke="black"/>
<path d="M471.5 0V38" stroke="black"/>
<path d="M465.125 0V20" stroke="black"/>
<path d="M484.25 0V29" stroke="black"/>
<path d="M477.875 0V20" stroke="black"/>
<path d="M497 0V29" stroke="black"/>
<path d="M490.625 0V20" stroke="black"/>
<path d="M509.75 0V29" stroke="black"/>
<path d="M503.375 0V20" stroke="black"/>
<path d="M522.5 0V38" stroke="black"/>
<path d="M516.125 0V20" stroke="black"/>
<path d="M420.5 0V38" stroke="black"/>
<path d="M535.25 0V29" stroke="black"/>
<path d="M528.875 0V20" stroke="black"/>
<path d="M548 0V29" stroke="black"/>
<path d="M541.625 0V20" stroke="black"/>
<path d="M560.75 0V29" stroke="black"/>
<path d="M554.375 0V20" stroke="black"/>
<path d="M573.5 0V38" stroke="black"/>
<path d="M567.125 0V20" stroke="black"/>
<path d="M586.25 0V29" stroke="black"/>
<path d="M579.875 0V20" stroke="black"/>
<path d="M599 0V29" stroke="black"/>
<path d="M592.625 0V20" stroke="black"/>
<path d="M611.75 0V29" stroke="black"/>
<path d="M605.375 0V20" stroke="black"/>
<path d="M624.5 0V38" stroke="black"/>
<path d="M618.125 0V20" stroke="black"/>
<path d="M522.5 0V38" stroke="black"/>
<path d="M624.5 0V38" stroke="black"/>
</svg>
